<svg xmlns="http://www.w3.org/2000/svg" width="78.327" height="78.008" viewBox="0 0 78.327 78.008">
  <g id="그룹_43494" data-name="그룹 43494" transform="translate(-11.916 -225.9) rotate(11)">
    <g id="그룹_42747" data-name="그룹 42747" transform="translate(89.203 229.655)">
      <ellipse id="타원_33033" data-name="타원 33033" cx="3.057" cy="5.961" rx="3.057" ry="5.961" fill="#6a6ae6"/>
      <ellipse id="타원_33034" data-name="타원 33034" cx="3.057" cy="5.961" rx="3.057" ry="5.961" transform="translate(16.812)" fill="#6a6ae6"/>
    </g>
    <path id="패스_69164" data-name="패스 69164" d="M170.33,345.014c0,12.408-8.758,22.467-19.563,22.467S131.2,357.422,131.2,345.014" transform="translate(-50.101 -96.561)" fill="none" stroke="#6a6ae6" stroke-miterlimit="10" stroke-width="3"/>
    <g id="그룹_42749" data-name="그룹 42749" transform="translate(62.074 211.779)">
      <g id="그룹_42748" data-name="그룹 42748">
        <path id="패스_69165" data-name="패스 69165" d="M194.023,211.779l-1.591,5.094-.782.026-1.921-4.977.775-.026,1.174,3.124q.1.251.193.551a5.633,5.633,0,0,1,.144.546q.034-.248.107-.554t.156-.57l.963-3.188Z" transform="translate(-154.591 -211.779)" fill="#6a6ae6"/>
        <path id="패스_69166" data-name="패스 69166" d="M208.189,217.471l-.406-1.493-1.921-.164-.652,1.4-.78-.066,2.315-4.881.78.066,1.451,5.2Zm-.558-2.172-.381-1.456q-.021-.08-.057-.239t-.07-.332c-.023-.115-.041-.209-.053-.281q-.074.213-.165.454t-.143.356l-.621,1.371Z" transform="translate(-165.245 -212.136)" fill="#6a6ae6"/>
        <path id="패스_69167" data-name="패스 69167" d="M222.815,218.926l1.026-4.933.739.154-.892,4.29,2.086.434-.134.642Z" transform="translate(-178.57 -213.384)" fill="#6a6ae6"/>
        <path id="패스_69168" data-name="패스 69168" d="M241.716,218.532l-1.064,3.082a2.051,2.051,0,0,1-.509.821,1.553,1.553,0,0,1-.834.414,2.272,2.272,0,0,1-1.129-.132,1.911,1.911,0,0,1-1.2-.954,1.865,1.865,0,0,1-.025-1.438l1.059-3.069.713.246-1.047,3.035a1.089,1.089,0,0,0,.742,1.577,1.124,1.124,0,0,0,.972-.023,1.386,1.386,0,0,0,.567-.775l1.045-3.028Z" transform="translate(-188.725 -215.748)" fill="#6a6ae6"/>
        <path id="패스_69169" data-name="패스 69169" d="M254.848,230.327l-2.512-1.256,2.253-4.507,2.512,1.256-.29.581-1.837-.919-.644,1.288,1.725.862-.287.574-1.724-.862-.739,1.477,1.837.919Z" transform="translate(-199.965 -221.045)" fill="#6a6ae6"/>
        <path id="패스_69170" data-name="패스 69170" d="M270.243,240.158l-1.588-1.106.25-.359.588.194,2.173-3.122-.383-.49.25-.359,1.588,1.105-.25.359-.587-.185-2.173,3.122.381.48Z" transform="translate(-211.792 -228.548)" fill="#6a6ae6"/>
        <path id="패스_69171" data-name="패스 69171" d="M279.941,248.334l-.687-.6.8-4.723-.021-.018-.4.505q-.228.285-.474.575l-1.771,2.013-.514-.452,3.328-3.782.682.6-.788,4.7.016.014.234-.292q.142-.177.306-.374l.309-.372,1.79-2.034.524.461Z" transform="translate(-217.744 -233.571)" fill="#6a6ae6"/>
        <path id="패스_69172" data-name="패스 69172" d="M297.656,265.281l-.464-.595,3.455-2.7-.92-1.178.517-.4,2.3,2.952-.517.4-.92-1.179Z" transform="translate(-232.474 -247.022)" fill="#6a6ae6"/>
        <path id="패스_69173" data-name="패스 69173" d="M304.88,279.779l-1.468-2.394,4.3-2.634,1.468,2.394-.554.339-1.074-1.751-1.227.753,1.008,1.644-.547.336-1.008-1.644-1.407.863,1.074,1.751Z" transform="translate(-236.982 -257.417)" fill="#6a6ae6"/>
        <path id="패스_69174" data-name="패스 69174" d="M316.695,291.976a1.42,1.42,0,0,0-.956-.841,2.189,2.189,0,0,0-1.469.208,2.283,2.283,0,0,0-1.12.943,1.4,1.4,0,0,0,.026,1.295,3.126,3.126,0,0,0,.312.537,5.553,5.553,0,0,0,.4.483l-.6.273a3.164,3.164,0,0,1-.4-.477,4.211,4.211,0,0,1-.345-.626,2.335,2.335,0,0,1-.239-1.293,1.936,1.936,0,0,1,.507-1.062,3.465,3.465,0,0,1,1.138-.794,3.1,3.1,0,0,1,1.337-.309,2.125,2.125,0,0,1,1.167.353,2.4,2.4,0,0,1,.843,1.043,3.338,3.338,0,0,1,.233.7,2.935,2.935,0,0,1,.066.7l-.693.01a4.514,4.514,0,0,0-.036-.56A1.992,1.992,0,0,0,316.695,291.976Z" transform="translate(-243.413 -268.695)" fill="#6a6ae6"/>
        <path id="패스_69175" data-name="패스 69175" d="M317.739,310.114l-.215-.723,2.2-.657-.68-2.283-2.2.656-.215-.723,4.829-1.438.216.723-2,.6.68,2.283,2-.6.215.723Z" transform="translate(-246.56 -279.301)" fill="#6a6ae6"/>
        <path id="패스_69176" data-name="패스 69176" d="M328.324,337.062l-5.114-.978-.053-.8L326.2,334.2q.166-.06.373-.126t.392-.121q.184-.054.26-.073c-.052,0-.14-.009-.263-.024s-.259-.034-.407-.057-.284-.049-.408-.078l-3.142-.66-.053-.8,4.941-1.636.051.774-2.923.928q-.306.09-.632.178t-.585.14q.27.017.62.068t.63.109l3.026.633.05.753-2.929,1.055q-.276.1-.616.195t-.585.144a5.949,5.949,0,0,1,.6.058q.335.047.65.1l3.02.535Z" transform="translate(-251.147 -297.909)" fill="#6a6ae6"/>
        <path id="패스_69177" data-name="패스 69177" d="M323.228,357.788l.121-1.931.437.028.139.6,3.8.238.22-.581.437.027-.121,1.931-.437-.028-.146-.6-3.8-.238-.213.575Z" transform="translate(-251.343 -316.198)" fill="#6a6ae6"/>
        <path id="패스_69178" data-name="패스 69178" d="M326.183,368.032a2.277,2.277,0,0,1-.583,1.338,1.307,1.307,0,0,1-1.153.276,1.388,1.388,0,0,1-.622-.243,1.273,1.273,0,0,1-.369-.432,1.891,1.891,0,0,1-.182-.507l-2.433,1.018.14-.855,2.206-.857.14-.855-2.013-.329.121-.745,4.973.812Zm-.633-.153.1-.586-1.693-.276-.1.621a1.308,1.308,0,0,0,.083.87.811.811,0,0,0,.608.369.721.721,0,0,0,.679-.172A1.56,1.56,0,0,0,325.55,367.879Z" transform="translate(-249.613 -323.434)" fill="#6a6ae6"/>
        <path id="패스_69179" data-name="패스 69179" d="M317.341,383.815l.783-2.7,4.839,1.4-.783,2.7-.623-.181.573-1.972-1.382-.4-.538,1.852-.617-.179.538-1.852-1.586-.46L317.971,384Z" transform="translate(-247.077 -334.506)" fill="#6a6ae6"/>
        <path id="패스_69180" data-name="패스 69180" d="M321.709,396.755a.93.93,0,0,1,.584.491.931.931,0,0,1-.439,1.107,1.188,1.188,0,0,1-1.342-.532.921.921,0,0,1,.439-1.107A.932.932,0,0,1,321.709,396.755Z" transform="translate(-249.336 -345.764)" fill="#6a6ae6"/>
        <path id="패스_69181" data-name="패스 69181" d="M313.168,410.742l-3.664-3.881.36-.695,5.28.761-.357.688-3.3-.5q-.268-.036-.576-.1a5.627,5.627,0,0,1-.546-.142,5.644,5.644,0,0,1,.431.365q.231.214.421.414l2.309,2.4Z" transform="translate(-241.397 -352.66)" fill="#6a6ae6"/>
        <path id="패스_69182" data-name="패스 69182" d="M302.28,416.357l1.054-1.623.367.238-.175.594,3.191,2.071.477-.4.367.238-1.053,1.623-.367-.238.165-.592-3.19-2.071-.468.4Z" transform="translate(-236.161 -358.869)" fill="#6a6ae6"/>
        <path id="패스_69183" data-name="패스 69183" d="M291.29,426.256l.582-.706,4.746.643.018-.021-.518-.387q-.292-.218-.59-.454l-2.069-1.7.435-.529,3.888,3.2-.577.7-4.725-.635-.013.016.3.225q.181.135.384.294l.382.3,2.091,1.723-.444.539Z" transform="translate(-228.196 -364.93)" fill="#6a6ae6"/>
        <path id="패스_69184" data-name="패스 69184" d="M283.768,440.336l.553-.513,2.978,3.214,1.1-1.016.446.481-2.747,2.545-.446-.481,1.1-1.016Z" transform="translate(-222.745 -377.052)" fill="#6a6ae6"/>
        <path id="패스_69185" data-name="패스 69185" d="M266.344,455.36l-1.742-4.907.665-.451,2.475,2.081q.136.113.3.258t.3.277c.093.088.158.15.195.188q-.038-.068-.112-.239t-.157-.38q-.082-.209-.139-.392l-1.018-3.044.665-.451,3.909,3.436-.642.435-2.279-2.053q-.232-.218-.473-.455t-.417-.434q.122.242.255.569t.224.6l.984,2.931-.625.423-2.391-1.994q-.228-.186-.48-.433t-.419-.432a5.972,5.972,0,0,1,.252.545q.128.314.239.614l1.065,2.876Z" transform="translate(-208.854 -383.196)" fill="#6a6ae6"/>
        <path id="패스_69186" data-name="패스 69186" d="M253.557,459.528l1.729-.868.2.391-.452.424,1.707,3.4.613-.1.2.391-1.729.868-.2-.391.442-.427-1.707-3.4-.6.105Z" transform="translate(-200.85 -390.704)" fill="#6a6ae6"/>
        <path id="패스_69187" data-name="패스 69187" d="M242.3,468.317a2.274,2.274,0,0,1-1.45.169,1.306,1.306,0,0,1-.818-.858,1.386,1.386,0,0,1-.1-.66,1.269,1.269,0,0,1,.188-.536,1.9,1.9,0,0,1,.347-.412l-2.1-1.59.809-.309,1.851,1.476.809-.309-.729-1.9.7-.269,1.8,4.706Zm-.186-.624.555-.212-.612-1.6-.587.224a1.31,1.31,0,0,0-.71.51.811.811,0,0,0-.012.711.72.72,0,0,0,.49.5A1.558,1.558,0,0,0,242.115,467.693Z" transform="translate(-189.836 -393.93)" fill="#6a6ae6"/>
        <path id="패스_69188" data-name="패스 69188" d="M226.371,469.038l2.725-.68,1.219,4.889-2.725.68-.157-.63,1.993-.5-.348-1.4-1.871.467-.156-.623,1.871-.467-.4-1.6-1.993.5Z" transform="translate(-181.147 -397.732)" fill="#6a6ae6"/>
        <path id="패스_69189" data-name="패스 69189" d="M220.543,478.374a.929.929,0,0,1-.13.751.931.931,0,0,1-1.178.178,1.187,1.187,0,0,1-.216-1.427.92.92,0,0,1,1.178-.178A.932.932,0,0,1,220.543,478.374Z" transform="translate(-175.707 -404.401)" fill="#6a6ae6"/>
        <path id="패스_69190" data-name="패스 69190" d="M201.6,478.02l1.505-5.12.781-.04,2,4.944-.774.039-1.227-3.1q-.1-.249-.2-.548a5.623,5.623,0,0,1-.153-.543q-.029.249-.1.556t-.146.573l-.909,3.2Z" transform="translate(-163.193 -400.995)" fill="#6a6ae6"/>
        <path id="패스_69191" data-name="패스 69191" d="M186.455,472.3l.431,1.486,1.924.13.628-1.414.781.053-2.232,4.92-.781-.053-1.539-5.176Zm.6,2.162.406,1.449c.015.053.035.132.061.238s.051.216.076.33.044.208.058.28q.071-.215.157-.456t.137-.358l.6-1.381Z" transform="translate(-151.647 -400.549)" fill="#6a6ae6"/>
        <path id="패스_69192" data-name="패스 69192" d="M176,470.353l-.94,4.95-.741-.141.818-4.3-2.093-.4.122-.645Z" transform="translate(-142.501 -398.788)" fill="#6a6ae6"/>
        <path id="패스_69193" data-name="패스 69193" d="M152.186,470.784l1.01-3.1a2.055,2.055,0,0,1,.495-.83,1.552,1.552,0,0,1,.827-.428,2.274,2.274,0,0,1,1.132.113,1.91,1.91,0,0,1,1.213.934,1.866,1.866,0,0,1,.05,1.437L155.906,472l-.717-.234,1-3.053a1.09,1.09,0,0,0-.769-1.564,1.123,1.123,0,0,0-.972.04,1.385,1.385,0,0,0-.553.784l-.993,3.046Z" transform="translate(-127.382 -396.311)" fill="#6a6ae6"/>
        <path id="패스_69194" data-name="패스 69194" d="M139.177,458.852l2.533,1.213-2.176,4.544L137,463.4l.28-.585,1.852.887.622-1.3-1.739-.833.277-.579,1.739.833.713-1.489-1.852-.887Z" transform="translate(-116.377 -390.843)" fill="#6a6ae6"/>
        <path id="패스_69195" data-name="패스 69195" d="M124.394,450.605,126,451.684l-.244.364-.591-.184-2.12,3.158.391.483-.244.363-1.607-1.078.244-.363.589.175,2.12-3.158-.389-.473Z" transform="translate(-105.205 -384.866)" fill="#6a6ae6"/>
        <path id="패스_69196" data-name="패스 69196" d="M109.426,439.407l.7.593-.715,4.736.021.018.394-.512q.222-.289.464-.583l1.737-2.043.522.443-3.263,3.839-.692-.588.707-4.715-.016-.013-.229.3q-.138.179-.3.38l-.3.377L106.7,443.7l-.532-.452Z" transform="translate(-94.027 -376.75)" fill="#6a6ae6"/>
        <path id="패스_69197" data-name="패스 69197" d="M94.165,426.9l.474.587-3.408,2.755.94,1.163-.51.413L89.307,428.9l.51-.413.94,1.162Z" transform="translate(-81.811 -367.684)" fill="#6a6ae6"/>
        <path id="패스_69198" data-name="패스 69198" d="M85.625,412.131l1.509,2.369-4.25,2.706-1.509-2.369.548-.349,1.1,1.732,1.214-.773L83.2,413.821l.542-.345,1.036,1.626,1.393-.887-1.1-1.732Z" transform="translate(-76.062 -356.982)" fill="#6a6ae6"/>
        <path id="패스_69199" data-name="패스 69199" d="M74.8,401.382a1.419,1.419,0,0,0,.971.825,2.187,2.187,0,0,0,1.465-.234,2.281,2.281,0,0,0,1.1-.963,1.4,1.4,0,0,0-.049-1.294,3.117,3.117,0,0,0-.322-.531,5.608,5.608,0,0,0-.4-.476l.592-.284a3.174,3.174,0,0,1,.409.47,4.25,4.25,0,0,1,.356.62,2.339,2.339,0,0,1,.262,1.288,1.939,1.939,0,0,1-.489,1.071,3.469,3.469,0,0,1-1.124.814,3.108,3.108,0,0,1-1.331.332,2.127,2.127,0,0,1-1.173-.333,2.406,2.406,0,0,1-.861-1.028,3.362,3.362,0,0,1-.245-.7,2.952,2.952,0,0,1-.078-.694l.693-.023a4.458,4.458,0,0,0,.045.56A1.992,1.992,0,0,0,74.8,401.382Z" transform="translate(-70.633 -347.049)" fill="#6a6ae6"/>
        <path id="패스_69200" data-name="패스 69200" d="M71.726,381.632l.228.72-2.193.694.719,2.271,2.193-.694.228.719-4.8,1.521-.228-.719,1.991-.631-.719-2.271-1.991.631-.228-.719Z" transform="translate(-65.588 -334.879)" fill="#6a6ae6"/>
        <path id="패스_69201" data-name="패스 69201" d="M62.074,351.731l5.13.891.067.8-3.028,1.135q-.165.063-.371.133t-.389.127q-.182.057-.259.078.078,0,.264.02t.408.05q.222.031.409.071l3.152.607.067.8-4.913,1.72-.064-.773,2.907-.978q.3-.1.629-.189t.582-.15q-.27-.012-.621-.057t-.631-.1l-3.037-.581-.062-.752,2.91-1.1q.275-.107.613-.205t.582-.154a5.937,5.937,0,0,1-.6-.048q-.336-.042-.652-.093l-3.028-.484Z" transform="translate(-62.074 -313.208)" fill="#6a6ae6"/>
        <path id="패스_69202" data-name="패스 69202" d="M67.666,341.931l-.088,1.933-.437-.02-.149-.6-3.8-.174-.21.585-.437-.02.088-1.933.437.02.156.595,3.8.174.2-.578Z" transform="translate(-62.415 -305.939)" fill="#6a6ae6"/>
        <path id="패스_69203" data-name="패스 69203" d="M63.416,327.528a2.276,2.276,0,0,1,.56-1.348,1.306,1.306,0,0,1,1.148-.3,1.385,1.385,0,0,1,.626.233,1.277,1.277,0,0,1,.377.425,1.912,1.912,0,0,1,.19.5l2.415-1.06-.125.857-2.191.895-.125.857,2.018.294-.109.746-4.986-.727Zm.635.142-.086.588,1.7.247.091-.622a1.31,1.31,0,0,0-.1-.868.811.811,0,0,0-.615-.358.721.721,0,0,0-.676.184A1.557,1.557,0,0,0,64.051,327.67Z" transform="translate(-62.9 -294.46)" fill="#6a6ae6"/>
        <path id="패스_69204" data-name="패스 69204" d="M71.819,310.916l-.737,2.71L66.22,312.3l.737-2.71.626.17-.539,1.982,1.389.378.506-1.861.62.169-.506,1.86,1.593.433.539-1.982Z" transform="translate(-65.079 -282.67)" fill="#6a6ae6"/>
        <path id="패스_69205" data-name="패스 69205" d="M77.081,304.054a.931.931,0,0,1-.592-.481.931.931,0,0,1,.42-1.115,1.186,1.186,0,0,1,1.35.509.919.919,0,0,1-.42,1.115A.931.931,0,0,1,77.081,304.054Z" transform="translate(-72.481 -277.448)" fill="#6a6ae6"/>
        <path id="패스_69206" data-name="패스 69206" d="M75.508,282.628l3.73,3.817-.348.7-5.293-.67.345-.694,3.307.448q.268.032.577.092a5.545,5.545,0,0,1,.549.132,5.585,5.585,0,0,1-.437-.358q-.235-.21-.428-.407l-2.35-2.36Z" transform="translate(-70.425 -263.126)" fill="#6a6ae6"/>
        <path id="패스_69207" data-name="패스 69207" d="M87.151,277.415l-1.026,1.641-.371-.232.165-.6-3.225-2.016-.47.406-.371-.232,1.026-1.641.371.232-.156.595,3.225,2.016.461-.4Z" transform="translate(-76.409 -257.412)" fill="#6a6ae6"/>
        <path id="패스_69208" data-name="패스 69208" d="M94.779,262.031l-.57.716-4.756-.563-.017.022.525.378q.3.213.6.445l2.1,1.67-.426.536L88.288,262.1l.566-.71,4.735.555.013-.016-.3-.219q-.183-.133-.389-.287l-.387-.29-2.12-1.688.435-.546Z" transform="translate(-81.072 -245.924)" fill="#6a6ae6"/>
        <path id="패스_69209" data-name="패스 69209" d="M105.8,250.77l-.545.522-3.032-3.164-1.079,1.034-.454-.474,2.7-2.591.454.474-1.08,1.035Z" transform="translate(-90.062 -236.651)" fill="#6a6ae6"/>
        <path id="패스_69210" data-name="패스 69210" d="M117.62,230.613l1.826,4.876-.657.462-2.511-2.038q-.138-.111-.3-.254t-.307-.272c-.095-.086-.16-.147-.2-.184q.039.067.116.238t.163.377q.086.207.146.389l1.071,3.026-.657.462-3.968-3.368.634-.446,2.314,2.013q.236.214.481.447t.424.426q-.126-.239-.265-.565t-.235-.594L114.66,232.7l.617-.434,2.424,1.952q.231.183.487.425t.427.424a6.009,6.009,0,0,1-.261-.541q-.134-.311-.25-.609l-1.114-2.857Z" transform="translate(-98.505 -225.429)" fill="#6a6ae6"/>
        <path id="패스_69211" data-name="패스 69211" d="M138.435,230.689l-1.714.9-.2-.388.444-.432L135.2,227.4l-.611.113-.2-.387,1.714-.9.2.388-.435.435,1.765,3.369.6-.116Z" transform="translate(-114.479 -222.249)" fill="#6a6ae6"/>
        <path id="패스_69212" data-name="패스 69212" d="M146.231,221.572a2.277,2.277,0,0,1,1.446-.194,1.306,1.306,0,0,1,.833.844,1.383,1.383,0,0,1,.114.658,1.277,1.277,0,0,1-.178.54,1.9,1.9,0,0,1-.34.418l2.131,1.554-.8.323-1.876-1.444-.8.323.761,1.892-.7.282-1.881-4.674Zm.2.62-.551.222.64,1.591.583-.235a1.308,1.308,0,0,0,.7-.522.813.813,0,0,0,0-.711.721.721,0,0,0-.5-.492A1.563,1.563,0,0,0,146.428,222.193Z" transform="translate(-122.127 -218.699)" fill="#6a6ae6"/>
        <path id="패스_69213" data-name="패스 69213" d="M165.581,220.137l-2.713.726-1.3-4.867,2.713-.726.168.627-1.984.531.372,1.39,1.862-.5.166.62-1.862.5.427,1.6,1.984-.531Z" transform="translate(-134.179 -214.309)" fill="#6a6ae6"/>
        <path id="패스_69214" data-name="패스 69214" d="M177.328,220.4a.93.93,0,0,1,.118-.753.931.931,0,0,1,1.175-.2,1.188,1.188,0,0,1,.24,1.423.92.92,0,0,1-1.175.2A.93.93,0,0,1,177.328,220.4Z" transform="translate(-145.586 -217.241)" fill="#6a6ae6"/>
      </g>
    </g>
  </g>
</svg>
