<svg xmlns="http://www.w3.org/2000/svg" width="56.142" height="55.443" viewBox="0 0 56.142 55.443" transform="rotate(45)">
  <g id="그룹_43495" data-name="그룹 43495" transform="translate(-168.373 -134.499) rotate(-30)">
    <g id="그룹_42747" data-name="그룹 42747" transform="translate(81.015 224.26)">
      <ellipse id="타원_33033" data-name="타원 33033" cx="2.134" cy="4.162" rx="2.134" ry="4.162" fill="#ffffff"/>
      <ellipse id="타원_33034" data-name="타원 33034" cx="2.134" cy="4.162" rx="2.134" ry="4.162" transform="translate(11.738)" fill="#ffffff"/>
    </g>
    <path id="패스_69164" data-name="패스 69164" d="M158.521,345.014c0,8.663-6.115,15.686-13.659,15.686S131.2,353.677,131.2,345.014" transform="translate(-55.844 -107.63)" fill="none" stroke="#ffffff" stroke-miterlimit="10" stroke-width="3"/>
    <g id="그룹_42749" data-name="그룹 42749" transform="translate(62.074 211.779)">
      <g id="그룹_42748" data-name="그룹 42748">
        <path id="패스_69165" data-name="패스 69165" d="M192.727,211.779l-1.111,3.557-.546.018-1.341-3.475.541-.018.82,2.181q.069.175.135.385t.1.381q.024-.173.075-.387t.109-.4l.672-2.226Z" transform="translate(-165.196 -211.779)" fill="#ffffff"/>
        <path id="패스_69166" data-name="패스 69166" d="M207.054,215.9l-.283-1.043-1.341-.114-.455.98-.544-.046,1.616-3.408.544.046,1.013,3.631Zm-.39-1.517-.266-1.016q-.015-.056-.04-.167t-.049-.232c-.016-.08-.029-.146-.037-.2q-.052.149-.115.317t-.1.248l-.434.957Z" transform="translate(-177.072 -212.176)" fill="#ffffff"/>
        <path id="패스_69167" data-name="패스 69167" d="M222.815,217.437l.716-3.444.516.107-.623,3,1.457.3-.093.449Z" transform="translate(-191.923 -213.568)" fill="#ffffff"/>
        <path id="패스_69168" data-name="패스 69168" d="M240.24,218.147,239.5,220.3a1.433,1.433,0,0,1-.355.573,1.085,1.085,0,0,1-.582.289,1.587,1.587,0,0,1-.789-.092,1.334,1.334,0,0,1-.836-.666,1.3,1.3,0,0,1-.017-1l.739-2.142.5.172-.731,2.119a.761.761,0,0,0,.518,1.1.785.785,0,0,0,.679-.016.968.968,0,0,0,.4-.541l.73-2.114Z" transform="translate(-203.243 -216.203)" fill="#ffffff"/>
        <path id="패스_69169" data-name="패스 69169" d="M254.09,228.587l-1.754-.877,1.573-3.146,1.754.877-.2.406-1.283-.642-.45.9,1.2.6-.2.4-1.2-.6-.516,1.031,1.283.641Z" transform="translate(-215.771 -222.107)" fill="#ffffff"/>
        <path id="패스_69170" data-name="패스 69170" d="M269.764,238.576l-1.109-.772.175-.251.411.136,1.517-2.18-.267-.342.174-.251,1.109.772-.174.251-.41-.129-1.517,2.18.266.335Z" transform="translate(-228.954 -230.47)" fill="#ffffff"/>
        <path id="패스_69171" data-name="패스 69171" d="M279.014,246.376l-.479-.422.556-3.3-.015-.013-.281.353q-.159.2-.331.4l-1.237,1.405-.359-.316,2.324-2.641.476.419-.55,3.283.011.01.163-.2q.1-.123.214-.261l.216-.26,1.25-1.42.366.322Z" transform="translate(-235.588 -236.068)" fill="#ffffff"/>
        <path id="패스_69172" data-name="패스 69172" d="M297.516,263.81l-.324-.415,2.412-1.882-.642-.823.361-.282,1.608,2.061-.361.282-.642-.823Z" transform="translate(-252.007 -251.062)" fill="#ffffff"/>
        <path id="패스_69173" data-name="패스 69173" d="M304.437,278.262l-1.025-1.671,3-1.839,1.025,1.672-.387.237-.75-1.222-.857.525.7,1.148-.382.234-.7-1.148-.983.6.75,1.222Z" transform="translate(-257.031 -262.649)" fill="#ffffff"/>
        <path id="패스_69174" data-name="패스 69174" d="M315.364,291.474a.991.991,0,0,0-.667-.587,1.528,1.528,0,0,0-1.025.145,1.594,1.594,0,0,0-.782.659.975.975,0,0,0,.018.9,2.185,2.185,0,0,0,.218.375,3.887,3.887,0,0,0,.277.337l-.417.191a2.21,2.21,0,0,1-.28-.333,2.945,2.945,0,0,1-.241-.437,1.63,1.63,0,0,1-.167-.9,1.351,1.351,0,0,1,.354-.742,2.418,2.418,0,0,1,.794-.554,2.167,2.167,0,0,1,.934-.216,1.483,1.483,0,0,1,.815.247,1.678,1.678,0,0,1,.588.728,2.33,2.33,0,0,1,.163.491,2.048,2.048,0,0,1,.046.486l-.484.007a3.154,3.154,0,0,0-.025-.391A1.392,1.392,0,0,0,315.364,291.474Z" transform="translate(-264.2 -275.22)" fill="#ffffff"/>
        <path id="패스_69175" data-name="패스 69175" d="M317.4,308.554l-.15-.5,1.539-.459L318.318,306l-1.539.458-.15-.5,3.371-1,.15.5-1.4.416.475,1.594,1.4-.416.15.5Z" transform="translate(-267.707 -287.041)" fill="#ffffff"/>
        <path id="패스_69176" data-name="패스 69176" d="M326.7,335.118l-3.571-.683-.037-.56,2.127-.757q.116-.042.261-.088t.273-.084q.129-.038.182-.051c-.036,0-.1-.007-.184-.017s-.181-.024-.284-.04-.2-.034-.285-.054l-2.193-.461-.037-.56,3.45-1.142.036.54-2.041.648q-.213.063-.441.125t-.408.1q.188.012.433.047t.44.076l2.113.442.035.526-2.045.737q-.193.071-.43.136t-.408.1a4.155,4.155,0,0,1,.417.041q.234.033.454.073l2.108.374Z" transform="translate(-272.82 -307.782)" fill="#ffffff"/>
        <path id="패스_69177" data-name="패스 69177" d="M323.228,357.206l.084-1.349.3.019.1.421,2.65.166.154-.406.3.019-.084,1.349-.3-.019-.1-.417-2.65-.166-.149.4Z" transform="translate(-273.039 -328.168)" fill="#ffffff"/>
        <path id="패스_69178" data-name="패스 69178" d="M324.57,367.371a1.59,1.59,0,0,1-.407.934.913.913,0,0,1-.805.192.969.969,0,0,1-.434-.17.888.888,0,0,1-.258-.3,1.32,1.32,0,0,1-.127-.354l-1.7.711.1-.6,1.54-.6.1-.6-1.405-.229.085-.52,3.472.567Zm-.442-.107.067-.409-1.182-.193-.071.433a.914.914,0,0,0,.058.607.566.566,0,0,0,.425.257.5.5,0,0,0,.474-.12A1.089,1.089,0,0,0,324.129,367.264Z" transform="translate(-271.111 -336.233)" fill="#ffffff"/>
        <path id="패스_69179" data-name="패스 69179" d="M317.341,383l.547-1.883,3.378.981-.547,1.883-.435-.126.4-1.377-.965-.28-.375,1.293-.431-.125.375-1.293-1.107-.321-.4,1.377Z" transform="translate(-268.283 -348.574)" fill="#ffffff"/>
        <path id="패스_69180" data-name="패스 69180" d="M321.332,396.724a.649.649,0,0,1,.407.343.65.65,0,0,1-.307.773.829.829,0,0,1-.937-.371.643.643,0,0,1,.307-.773A.651.651,0,0,1,321.332,396.724Z" transform="translate(-270.802 -361.122)" fill="#ffffff"/>
        <path id="패스_69181" data-name="패스 69181" d="M312.062,409.361l-2.558-2.709.251-.485,3.686.531-.249.481-2.3-.352q-.187-.025-.4-.071a3.93,3.93,0,0,1-.381-.1,3.939,3.939,0,0,1,.3.255q.161.149.294.289l1.612,1.676Z" transform="translate(-261.952 -368.809)" fill="#ffffff"/>
        <path id="패스_69182" data-name="패스 69182" d="M302.28,415.867l.736-1.133.256.166-.122.415,2.228,1.446.333-.278.256.166-.735,1.133-.256-.166.115-.413-2.227-1.446-.326.277Z" transform="translate(-256.117 -375.73)" fill="#ffffff"/>
        <path id="패스_69183" data-name="패스 69183" d="M291.29,425.3l.406-.493,3.314.449.012-.015-.362-.27q-.2-.152-.412-.317l-1.445-1.19.3-.369,2.715,2.237-.4.489-3.3-.443-.009.011.209.157q.126.095.268.205l.267.207,1.46,1.2-.31.376Z" transform="translate(-247.239 -382.485)" fill="#ffffff"/>
        <path id="패스_69184" data-name="패스 69184" d="M283.768,440.181l.386-.358,2.079,2.244.766-.709.311.336-1.918,1.777-.311-.336.766-.71Z" transform="translate(-241.162 -395.997)" fill="#ffffff"/>
        <path id="패스_69185" data-name="패스 69185" d="M265.818,453.229,264.6,449.8l.464-.315,1.728,1.453q.095.079.208.18t.211.193c.065.061.11.1.136.131q-.026-.048-.078-.167t-.109-.265q-.057-.146-.1-.274l-.711-2.125.464-.315,2.73,2.4-.448.3-1.591-1.433q-.162-.152-.33-.318t-.291-.3q.085.169.178.4t.157.418l.687,2.046-.436.3-1.669-1.392q-.159-.13-.335-.3t-.293-.3a4.158,4.158,0,0,1,.176.381q.09.219.167.429l.743,2.008Z" transform="translate(-225.68 -402.845)" fill="#ffffff"/>
        <path id="패스_69186" data-name="패스 69186" d="M253.557,459.266l1.207-.606.137.273-.315.3,1.192,2.373.428-.072.137.273-1.207.606-.137-.273.309-.3-1.192-2.373-.421.074Z" transform="translate(-216.757 -411.214)" fill="#ffffff"/>
        <path id="패스_69187" data-name="패스 69187" d="M241.112,466.746a1.587,1.587,0,0,1-1.012.118.912.912,0,0,1-.571-.6.968.968,0,0,1-.072-.461.887.887,0,0,1,.131-.374,1.33,1.33,0,0,1,.242-.288l-1.469-1.11.565-.216,1.292,1.03.565-.216-.509-1.33.492-.188,1.256,3.286Zm-.13-.435.387-.148-.428-1.118-.41.157a.915.915,0,0,0-.5.356.566.566,0,0,0-.008.5.5.5,0,0,0,.342.349A1.088,1.088,0,0,0,240.982,466.31Z" transform="translate(-204.482 -414.81)" fill="#ffffff"/>
        <path id="패스_69188" data-name="패스 69188" d="M226.371,468.833l1.9-.475.851,3.413-1.9.475-.11-.44,1.391-.347-.243-.975-1.306.326-.109-.435,1.306-.326-.279-1.119-1.391.347Z" transform="translate(-194.796 -419.048)" fill="#ffffff"/>
        <path id="패스_69189" data-name="패스 69189" d="M220.037,478.128a.649.649,0,0,1-.091.524.65.65,0,0,1-.822.124.829.829,0,0,1-.15-1,.643.643,0,0,1,.822-.124A.651.651,0,0,1,220.037,478.128Z" transform="translate(-188.733 -426.481)" fill="#ffffff"/>
        <path id="패스_69190" data-name="패스 69190" d="M201.6,476.462l1.051-3.575.546-.028,1.4,3.452-.541.027-.856-2.167q-.072-.174-.141-.383a3.93,3.93,0,0,1-.107-.379q-.02.174-.068.388t-.1.4l-.635,2.237Z" transform="translate(-174.784 -422.685)" fill="#ffffff"/>
        <path id="패스_69191" data-name="패스 69191" d="M186.217,472.282l.3,1.038,1.343.091.439-.987.545.037-1.558,3.435-.545-.037-1.074-3.614Zm.415,1.51.283,1.012c.011.037.025.092.042.166s.036.15.053.231.031.145.041.2q.049-.15.11-.319t.1-.25l.417-.964Z" transform="translate(-161.915 -422.188)" fill="#ffffff"/>
        <path id="패스_69192" data-name="패스 69192" d="M175.112,470.191l-.656,3.456-.518-.1.571-3.006-1.462-.278.086-.45Z" transform="translate(-151.72 -420.225)" fill="#ffffff"/>
        <path id="패스_69193" data-name="패스 69193" d="M152.186,469.46l.705-2.164a1.435,1.435,0,0,1,.345-.579,1.084,1.084,0,0,1,.577-.3,1.588,1.588,0,0,1,.79.079,1.334,1.334,0,0,1,.847.652,1.3,1.3,0,0,1,.035,1l-.7,2.155-.5-.163.695-2.131a.761.761,0,0,0-.537-1.092.784.784,0,0,0-.678.028.967.967,0,0,0-.386.548l-.693,2.127Z" transform="translate(-134.868 -417.464)" fill="#ffffff"/>
        <path id="패스_69194" data-name="패스 69194" d="M138.52,458.852l1.768.847-1.519,3.173L137,462.025l.2-.409,1.293.619.434-.907-1.214-.581.194-.4,1.214.582.5-1.04-1.293-.619Z" transform="translate(-122.601 -411.369)" fill="#ffffff"/>
        <path id="패스_69195" data-name="패스 69195" d="M123.546,450.605l1.122.753-.17.254-.413-.129-1.48,2.2.273.338-.17.254-1.122-.753.17-.254.411.122,1.48-2.2-.272-.331Z" transform="translate(-110.149 -404.707)" fill="#ffffff"/>
        <path id="패스_69196" data-name="패스 69196" d="M108.441,439.407l.487.414-.5,3.306.015.013.275-.358q.155-.2.324-.407l1.213-1.427.364.31-2.278,2.68-.483-.41.494-3.292-.011-.009-.16.207q-.1.125-.209.265l-.211.263-1.225,1.441-.372-.316Z" transform="translate(-97.69 -395.661)" fill="#ffffff"/>
        <path id="패스_69197" data-name="패스 69197" d="M92.7,426.9l.331.41-2.379,1.924.656.812-.356.288L89.307,428.3l.356-.288.656.812Z" transform="translate(-84.073 -385.555)" fill="#ffffff"/>
        <path id="패스_69198" data-name="패스 69198" d="M84.342,412.131l1.053,1.654-2.967,1.89-1.053-1.654.382-.243.77,1.21.848-.54-.723-1.136.378-.241.723,1.135.972-.619-.77-1.209Z" transform="translate(-77.666 -373.627)" fill="#ffffff"/>
        <path id="패스_69199" data-name="패스 69199" d="M74.526,400.489a.991.991,0,0,0,.678.576,1.527,1.527,0,0,0,1.023-.163,1.593,1.593,0,0,0,.77-.672.976.976,0,0,0-.034-.9,2.176,2.176,0,0,0-.224-.371,3.915,3.915,0,0,0-.282-.332l.413-.2a2.216,2.216,0,0,1,.286.328,2.968,2.968,0,0,1,.248.433,1.633,1.633,0,0,1,.183.9,1.354,1.354,0,0,1-.341.748,2.421,2.421,0,0,1-.785.568,2.17,2.17,0,0,1-.93.232,1.485,1.485,0,0,1-.819-.232,1.68,1.68,0,0,1-.6-.718,2.347,2.347,0,0,1-.171-.489,2.061,2.061,0,0,1-.055-.485l.484-.016a3.113,3.113,0,0,0,.032.391A1.391,1.391,0,0,0,74.526,400.489Z" transform="translate(-71.615 -362.555)" fill="#ffffff"/>
        <path id="패스_69200" data-name="패스 69200" d="M70.276,381.632l.159.5-1.531.485.5,1.586,1.531-.485.159.5-3.354,1.062-.159-.5,1.39-.44-.5-1.586-1.39.44-.159-.5Z" transform="translate(-65.99 -348.989)" fill="#ffffff"/>
        <path id="패스_69201" data-name="패스 69201" d="M62.074,351.731l3.582.622.047.559-2.114.793q-.115.044-.259.093t-.272.089q-.127.04-.181.054.054,0,.184.014t.285.035q.155.021.286.05l2.2.424.047.559-3.43,1.2-.045-.54L64.432,355q.212-.067.439-.132t.407-.1q-.189-.009-.434-.04t-.441-.069l-2.12-.406-.044-.525,2.032-.771q.192-.075.428-.143t.406-.107a4.148,4.148,0,0,1-.418-.034q-.235-.029-.455-.065l-2.114-.338Z" transform="translate(-62.074 -324.835)" fill="#ffffff"/>
        <path id="패스_69202" data-name="패스 69202" d="M66.121,341.862l-.062,1.35-.305-.014-.1-.42L63,342.656l-.147.408-.305-.014.062-1.35.305.014.109.415,2.653.121.142-.4Z" transform="translate(-62.454 -316.732)" fill="#ffffff"/>
        <path id="패스_69203" data-name="패스 69203" d="M63.355,327.025a1.589,1.589,0,0,1,.391-.941.912.912,0,0,1,.8-.206.967.967,0,0,1,.437.162.891.891,0,0,1,.263.3,1.335,1.335,0,0,1,.133.352l1.686-.74-.087.6-1.53.625-.087.6,1.409.205-.076.521-3.481-.507Zm.444.1-.06.41,1.185.173.063-.434a.915.915,0,0,0-.068-.606.567.567,0,0,0-.429-.25.5.5,0,0,0-.472.128A1.087,1.087,0,0,0,63.8,327.125Z" transform="translate(-62.995 -303.938)" fill="#ffffff"/>
        <path id="패스_69204" data-name="패스 69204" d="M70.129,310.517l-.514,1.892-3.395-.923.514-1.892.437.119L66.8,311.1l.97.264.353-1.3.433.118-.353,1.3,1.112.3.376-1.384Z" transform="translate(-65.423 -290.796)" fill="#ffffff"/>
        <path id="패스_69205" data-name="패스 69205" d="M76.886,303.552a.65.65,0,0,1-.413-.336.65.65,0,0,1,.293-.778.828.828,0,0,1,.943.355.642.642,0,0,1-.293.778A.65.65,0,0,1,76.886,303.552Z" transform="translate(-73.674 -284.975)" fill="#ffffff"/>
        <path id="패스_69206" data-name="패스 69206" d="M74.931,282.628l2.6,2.665-.243.489-3.7-.468.241-.485,2.309.313q.187.022.4.064a3.876,3.876,0,0,1,.383.092,3.9,3.9,0,0,1-.305-.25q-.164-.146-.3-.284l-1.641-1.648Z" transform="translate(-71.382 -269.012)" fill="#ffffff"/>
        <path id="패스_69207" data-name="패스 69207" d="M85.552,276.609l-.716,1.146-.259-.162.115-.417-2.252-1.408-.328.284-.259-.162.716-1.146.259.162-.109.415,2.252,1.407.322-.282Z" transform="translate(-78.052 -262.643)" fill="#ffffff"/>
        <path id="패스_69208" data-name="패스 69208" d="M92.82,261.084l-.4.5-3.321-.393-.012.015.366.264q.206.148.417.31l1.465,1.166-.3.374-2.752-2.191.395-.5,3.306.388.009-.011-.212-.153q-.128-.093-.272-.2l-.27-.2-1.48-1.178.3-.381Z" transform="translate(-83.25 -249.839)" fill="#ffffff"/>
        <path id="패스_69209" data-name="패스 69209" d="M104.26,249.36l-.38.365-2.117-2.209-.754.722-.317-.331,1.888-1.809.317.331-.754.722Z" transform="translate(-93.27 -239.503)" fill="#ffffff"/>
        <path id="패스_69210" data-name="패스 69210" d="M116.026,230.613l1.275,3.4-.459.323-1.753-1.423q-.1-.077-.211-.177t-.214-.19c-.066-.06-.112-.1-.138-.129q.027.047.081.166t.114.263q.06.145.1.272l.748,2.113-.459.323-2.77-2.352.443-.312L114.4,234.3q.165.149.336.312t.3.3q-.088-.167-.185-.394t-.164-.415l-.722-2.034.431-.3,1.693,1.363q.161.127.34.3t.3.3a4.192,4.192,0,0,1-.182-.378q-.093-.217-.174-.425l-.778-1.995Z" transform="translate(-102.681 -226.993)" fill="#ffffff"/>
        <path id="패스_69211" data-name="패스 69211" d="M137.211,229.342l-1.2.627-.142-.271.31-.3-1.232-2.352-.427.079-.142-.27,1.2-.627.142.271-.3.3,1.232,2.352.42-.081Z" transform="translate(-120.486 -223.45)" fill="#ffffff"/>
        <path id="패스_69212" data-name="패스 69212" d="M145.84,221.5a1.59,1.59,0,0,1,1.01-.135.912.912,0,0,1,.582.589.966.966,0,0,1,.08.459.891.891,0,0,1-.125.377,1.324,1.324,0,0,1-.237.292l1.488,1.085-.561.226-1.31-1.008-.561.226.532,1.321-.489.2-1.313-3.264Zm.137.433-.385.155.447,1.111.407-.164a.914.914,0,0,0,.49-.364.567.567,0,0,0,0-.5.5.5,0,0,0-.348-.343A1.091,1.091,0,0,0,145.977,221.932Z" transform="translate(-129.011 -219.492)" fill="#ffffff"/>
        <path id="패스_69213" data-name="패스 69213" d="M164.369,218.668l-1.894.507-.91-3.4,1.894-.507.117.438-1.385.371.26.971,1.3-.348.116.433-1.3.348.3,1.114,1.385-.371Z" transform="translate(-142.445 -214.599)" fill="#ffffff"/>
        <path id="패스_69214" data-name="패스 69214" d="M177.321,220.07a.649.649,0,0,1,.082-.526.65.65,0,0,1,.82-.138.829.829,0,0,1,.167.994.642.642,0,0,1-.82.138A.65.65,0,0,1,177.321,220.07Z" transform="translate(-155.158 -217.868)" fill="#ffffff"/>
      </g>
    </g>
  </g>
</svg>
