<svg xmlns="http://www.w3.org/2000/svg" xmlns:xlink="http://www.w3.org/1999/xlink" width="80" height="80" viewBox="0 0 80 80">
  <defs>
    <clipPath id="clip-path">
      <rect id="사각형_4774" data-name="사각형 4774" width="76.979" height="77.055" fill="none" stroke="#6a6ae6" stroke-width="3"/>
    </clipPath>
  </defs>
  <g id="그룹_43414" data-name="그룹 43414" transform="translate(41 -1082)">
    <g id="그룹_43231" data-name="그룹 43231" transform="translate(-39 1083)">
      <g id="그룹_43230" data-name="그룹 43230" transform="translate(0 0)" clip-path="url(#clip-path)">
        <path id="패스_81669" data-name="패스 81669" d="M13.723,9.97V1h51V31.344H25.03" transform="translate(7.512 0.547)" fill="none" stroke="#6a6ae6" stroke-miterlimit="10" stroke-width="3"/>
        <path id="패스_81670" data-name="패스 81670" d="M24.668,19.254a5.68,5.68,0,0,0-5.679-5.68H14.177A5.68,5.68,0,0,0,8.5,19.254a5.579,5.579,0,0,0,.353,1.906H24.319A5.69,5.69,0,0,0,24.668,19.254Z" transform="translate(4.652 7.43)" fill="none" stroke="#6a6ae6" stroke-miterlimit="10" stroke-width="3"/>
        <path id="패스_81671" data-name="패스 81671" d="M25.561,18.476H6.225V33.56H29.134V18.476Z" transform="translate(3.408 10.113)" fill="none" stroke="#6a6ae6" stroke-miterlimit="10" stroke-width="3"/>
        <circle id="타원_33067" data-name="타원 33067" cx="4.998" cy="4.998" r="4.998" transform="translate(16.237 11.008)" fill="none" stroke="#6a6ae6" stroke-miterlimit="10" stroke-width="3"/>
        <path id="패스_81672" data-name="패스 81672" d="M17.17,53.045H1V46.717a5.679,5.679,0,0,1,5.68-5.68H11.49a5.68,5.68,0,0,1,5.68,5.68Z" transform="translate(0.547 22.463)" fill="none" stroke="#6a6ae6" stroke-miterlimit="10" stroke-width="3"/>
        <circle id="타원_33068" data-name="타원 33068" cx="4.998" cy="4.998" r="4.998" transform="translate(4.635 53.504)" fill="none" stroke="#6a6ae6" stroke-miterlimit="10" stroke-width="3"/>
        <path id="패스_81673" data-name="패스 81673" d="M35.776,53.045H19.606V46.717a5.679,5.679,0,0,1,5.679-5.68H30.1a5.68,5.68,0,0,1,5.68,5.68Z" transform="translate(10.732 22.463)" fill="none" stroke="#6a6ae6" stroke-miterlimit="10" stroke-width="3"/>
        <circle id="타원_33069" data-name="타원 33069" cx="4.998" cy="4.998" r="4.998" transform="translate(33.425 53.504)" fill="none" stroke="#6a6ae6" stroke-miterlimit="10" stroke-width="3"/>
        <path id="패스_81674" data-name="패스 81674" d="M54.165,53.045H37.995V46.717a5.679,5.679,0,0,1,5.68-5.68h4.809a5.68,5.68,0,0,1,5.68,5.68Z" transform="translate(20.798 22.463)" fill="none" stroke="#6a6ae6" stroke-miterlimit="10" stroke-width="3"/>
        <circle id="타원_33070" data-name="타원 33070" cx="4.998" cy="4.998" r="4.998" transform="translate(61.88 53.504)" fill="none" stroke="#6a6ae6" stroke-miterlimit="10" stroke-width="3"/>
        <line id="선_46" data-name="선 46" x2="75.432" transform="translate(1.547 43.673)" fill="none" stroke="#6a6ae6" stroke-miterlimit="10" stroke-width="3"/>
        <line id="선_47" data-name="선 47" x2="21.663" transform="translate(45.222 9.744)" fill="none" stroke="#6a6ae6" stroke-miterlimit="10" stroke-width="3"/>
        <line id="선_48" data-name="선 48" x2="10.832" transform="translate(56.053 15.933)" fill="none" stroke="#6a6ae6" stroke-miterlimit="10" stroke-width="3"/>
        <line id="선_49" data-name="선 49" x2="17.021" transform="translate(49.864 22.123)" fill="none" stroke="#6a6ae6" stroke-miterlimit="10" stroke-width="3"/>
      </g>
    </g>
    <rect id="사각형_4775" data-name="사각형 4775" width="80" height="80" transform="translate(-41 1082)" fill="none"/>
  </g>
</svg>
