<svg xmlns="http://www.w3.org/2000/svg" width="80" height="80" viewBox="0 0 80 80">
  <g id="그룹_43272" data-name="그룹 43272" transform="translate(0 0.25)">
    <rect id="사각형_4836" data-name="사각형 4836" width="80" height="80" transform="translate(0 -0.25)" fill="none"/>
    <path id="_290109_award_prize_trophy_win_winner_icon" data-name="290109_award_prize_trophy_win_winner_icon" d="M50.01,25.231h0A17.412,17.412,0,0,1,36.942,42.082V55.024h8.712a1.452,1.452,0,0,1,0,2.9H19.519a1.452,1.452,0,0,1,0-2.9h8.712V42.082A17.412,17.412,0,0,1,15.163,25.231h0A10.163,10.163,0,0,1,5,15.067v-2.9a1.452,1.452,0,0,1,1.452-1.452h8.712V9.26A4.356,4.356,0,0,0,10.808,4.9h0a1.452,1.452,0,1,1,0-2.9H54.365a1.452,1.452,0,1,1,0,2.9h0A4.356,4.356,0,0,0,50.01,9.26h0v1.452h8.712a1.452,1.452,0,0,1,1.452,1.452v2.9A10.163,10.163,0,0,1,50.01,25.231ZM31.135,55.024h2.9V42.58c-.479.041-.961.074-1.452.074s-.973-.033-1.452-.074ZM7.9,13.615v1.452a7.259,7.259,0,0,0,7.26,7.26V13.615ZM16.583,4.9A7.2,7.2,0,0,1,18.067,9.26h0V25.231a14.519,14.519,0,0,0,29.038,0V9.26h0A7.2,7.2,0,0,1,48.59,4.9Zm40.686,8.712H50.01v8.712a7.259,7.259,0,0,0,7.26-7.26ZM15.163,60.831H50.01a1.452,1.452,0,1,1,0,2.9H15.163a1.452,1.452,0,0,1,0-2.9Z" transform="translate(7.5 6.75)" fill="#6a6ae6" stroke="#6a6ae6" stroke-width="1" fill-rule="evenodd"/>
  </g>
</svg>
