<svg id="그룹_43264" data-name="그룹 43264" xmlns="http://www.w3.org/2000/svg" width="80" height="80" viewBox="0 0 80 80">
  <rect id="사각형_4840" data-name="사각형 4840" width="80" height="80" transform="translate(0 0)" fill="none"/>
  <g id="_2125352_book_education_learn_school_study_icon" data-name="2125352_book_education_learn_school_study_icon" transform="translate(6.338 10.045)">
    <path id="패스_10534" data-name="패스 10534" d="M131.96,118.986H112.767c-6.366,0-10.785,5.081-12.871,8.144-2.086-3.062-6.505-8.144-12.871-8.144H67.83a1.811,1.811,0,0,0-1.6,1.968v27.015a1.631,1.631,0,1,0,3.193,0V122.921h17.6c6.175,0,10.273,6.365,11.275,8.1v40.031c-3.149-3.17-8.359-5.376-15.576-6.583a79.526,79.526,0,0,0-13.3-.99V147.224a1.613,1.613,0,1,0-3.193,0v29.7a1.811,1.811,0,0,0,1.6,1.968h64.13a1.811,1.811,0,0,0,1.6-1.968V120.954A1.812,1.812,0,0,0,131.96,118.986Zm-19.194,3.935h17.6v40.558c-.2,0-.417,0-.649,0a73.121,73.121,0,0,0-16.649,1.815c-5.17,1.285-9.04,3.215-11.574,5.765v-40.04C102.488,129.277,106.558,122.921,112.767,122.921Zm-43.34,44.494a77.686,77.686,0,0,1,12.866.952c7.218,1.207,12.3,3.5,14.729,6.593h-27.6Zm33.319,7.545c4.267-5.511,16.227-7.549,26.969-7.549.233,0,.449,0,.649,0v7.546H102.746Z" transform="translate(-66.234 -118.986)" fill="#6a6ae6"/>
    <path id="패스_10535" data-name="패스 10535" d="M317.459,171.43H329.6a1.717,1.717,0,1,0,0-3.434H317.459a1.717,1.717,0,1,0,0,3.434Z" transform="translate(-273.222 -157.185)" fill="#6a6ae6"/>
    <path id="패스_10536" data-name="패스 10536" d="M317.459,225.532H329.6a1.717,1.717,0,1,0,0-3.434H317.459a1.717,1.717,0,1,0,0,3.434Z" transform="translate(-273.222 -199.353)" fill="#6a6ae6"/>
    <path id="패스_10537" data-name="패스 10537" d="M317.459,279.635H329.6a1.717,1.717,0,1,0,0-3.434H317.459a1.717,1.717,0,1,0,0,3.434Z" transform="translate(-273.222 -241.522)" fill="#6a6ae6"/>
    <path id="패스_10538" data-name="패스 10538" d="M116.324,171.43h12.142a1.717,1.717,0,1,0,0-3.434H116.324a1.717,1.717,0,1,0,0,3.434Z" transform="translate(-105.379 -157.185)" fill="#6a6ae6"/>
    <path id="패스_10539" data-name="패스 10539" d="M116.324,225.532h12.142a1.717,1.717,0,1,0,0-3.434H116.324a1.717,1.717,0,1,0,0,3.434Z" transform="translate(-105.379 -199.353)" fill="#6a6ae6"/>
    <path id="패스_10540" data-name="패스 10540" d="M116.324,279.635h12.142a1.717,1.717,0,1,0,0-3.434H116.324a1.717,1.717,0,1,0,0,3.434Z" transform="translate(-105.379 -241.522)" fill="#6a6ae6"/>
  </g>
</svg>
