<svg xmlns="http://www.w3.org/2000/svg" width="80" height="80" viewBox="0 0 80 80">
  <g id="그룹_43416" data-name="그룹 43416" transform="translate(13354 -13683)">
    <rect id="사각형_4778" data-name="사각형 4778" width="80" height="80" transform="translate(-13354 13683)" fill="none"/>
    <g id="그룹_43236" data-name="그룹 43236" transform="translate(-2 1)">
      <g id="사각형_4779" data-name="사각형 4779" transform="translate(-13336 13700)" fill="none" stroke="#6a6ae6" stroke-width="3">
        <rect width="45" height="45" rx="8" stroke="none"/>
        <rect x="1.5" y="1.5" width="42" height="42" rx="6.5" fill="none"/>
      </g>
      <g id="사각형_4784" data-name="사각형 4784" transform="translate(-13331 13705)" fill="none" stroke="#6a6ae6" stroke-width="3">
        <rect width="35" height="35" rx="8" stroke="none"/>
        <rect x="1.5" y="1.5" width="32" height="32" rx="6.5" fill="none"/>
      </g>
      <g id="사각형_4782" data-name="사각형 4782" transform="translate(-13293 13705)" fill="none" stroke="#6a6ae6" stroke-width="3">
        <rect width="6" height="11" rx="3" stroke="none"/>
        <rect x="1.5" y="1.5" width="3" height="8" rx="1.5" fill="none"/>
      </g>
      <g id="사각형_4783" data-name="사각형 4783" transform="translate(-13293 13719)" fill="none" stroke="#6a6ae6" stroke-width="3">
        <rect width="6" height="11" rx="3" stroke="none"/>
        <rect x="1.5" y="1.5" width="3" height="8" rx="1.5" fill="none"/>
      </g>
      <g id="사각형_4780" data-name="사각형 4780" transform="translate(-13326 13743)" fill="none" stroke="#6a6ae6" stroke-width="3">
        <path d="M0,0H26a0,0,0,0,1,0,0V6a8,8,0,0,1-8,8H8A8,8,0,0,1,0,6V0A0,0,0,0,1,0,0Z" stroke="none"/>
        <path d="M1.5,1.5h23a0,0,0,0,1,0,0V6A6.5,6.5,0,0,1,18,12.5H8A6.5,6.5,0,0,1,1.5,6V1.5A0,0,0,0,1,1.5,1.5Z" fill="none"/>
      </g>
      <g id="사각형_4781" data-name="사각형 4781" transform="translate(-13326 13688)" fill="none" stroke="#6a6ae6" stroke-width="3">
        <path d="M8,0H18a8,8,0,0,1,8,8v6a0,0,0,0,1,0,0H0a0,0,0,0,1,0,0V8A8,8,0,0,1,8,0Z" stroke="none"/>
        <path d="M8,1.5H18A6.5,6.5,0,0,1,24.5,8v4.5a0,0,0,0,1,0,0H1.5a0,0,0,0,1,0,0V8A6.5,6.5,0,0,1,8,1.5Z" fill="none"/>
      </g>
      <path id="패스_81684" data-name="패스 81684" d="M-13322.1,13722.5h8.2v11.854" transform="translate(0.403 -1)" fill="none" stroke="#6a6ae6" stroke-linecap="round" stroke-linejoin="round" stroke-width="3"/>
    </g>
  </g>
</svg>
