<svg id="그룹_43536" data-name="그룹 43536" xmlns="http://www.w3.org/2000/svg" width="80" height="80" viewBox="0 0 80 80">
  <rect id="사각형_4835" data-name="사각형 4835" width="80" height="80" fill="none"/>
  <g id="_4229875_bank_piggy_piggy_bank_savings_icon" data-name="4229875_bank_piggy_piggy bank_savings_icon" transform="translate(5 11.25)">
    <path id="패스_10498" data-name="패스 10498" d="M74.983,48.207a20.189,20.189,0,0,0-.482-2.1c-1.956-7.2-7.315-13.467-14.715-17.238A34.02,34.02,0,0,0,54.4,26.688,35.789,35.789,0,0,0,43.824,25.1,35.233,35.233,0,0,0,31.35,27.311a1.409,1.409,0,1,0,.992,2.637,32.473,32.473,0,0,1,11.511-2.041,32.834,32.834,0,0,1,9.725,1.446,31.354,31.354,0,0,1,4.962,2.013c6.691,3.4,11.511,9.044,13.269,15.452.17.624.312,1.247.425,1.843A21.9,21.9,0,0,1,66.449,67.8a4.292,4.292,0,0,0-1.134,1.956L62.2,80.584H54.91l-.851-3.317A1.4,1.4,0,0,0,52.7,76.218l-17.663-.057h0a1.4,1.4,0,0,0-1.361,1.049l-.879,3.4H25.509l-2.041-7.145a4.677,4.677,0,0,0-2.58-2.977A58.022,58.022,0,0,1,9.746,63.914a1.4,1.4,0,0,1-.539-1.106l.028-13.3,2.041-.028a1.345,1.345,0,0,0,1.106-.567l7.088-9.441c.51-.709.17-1.446-.113-2.1-.085-.255-.2-.482-.312-.737l-.085-.17c-.284-.652-.567-1.276-.879-1.871-.539-1.106-1.106-2.24-1.729-3.4-.057-.113-.142-.227-.17-.312-.057-.113-.142-.227-.2-.369h.057c.255,0,.51-.028.822-.028a13.125,13.125,0,0,1,4.706.737c.454.17,1.361.6,1.531.68.312.17,2.1,1.219,2.495,1.531a15,15,0,0,1,4.366,5.245,1.383,1.383,0,0,0,1.871.624,1.407,1.407,0,0,0,.624-1.871A17.8,17.8,0,0,0,27.267,31.2c-.624-.482-2.722-1.673-2.864-1.758h0c-.652-.369-1.9-.851-1.928-.879a16.553,16.553,0,0,0-5.557-.907c-.34,0-.737,0-1.049.028-.227,0-.454.028-.765.057-.057,0-.17.028-.227.028H14.82A2.352,2.352,0,0,0,13.063,29.3a2.7,2.7,0,0,0,.17,1.928c.142.34.312.652.51,1.049.057.085.085.142.142.227.6,1.106,1.162,2.211,1.673,3.289.284.6.567,1.162.822,1.758l.085.17c.085.2.17.425.284.68h0l-6.209,8.25-2.722.028a1.391,1.391,0,0,0-1.389,1.389L6.4,62.751A4.273,4.273,0,0,0,8.044,66.1a62.218,62.218,0,0,0,11.709,6.918,1.972,1.972,0,0,1,1.021,1.162L23.1,82.342a1.429,1.429,0,0,0,1.361,1.021h9.413a1.4,1.4,0,0,0,1.361-1.049l.879-3.4,15.48.057.851,3.346A1.4,1.4,0,0,0,53.8,83.363h9.441a1.456,1.456,0,0,0,1.361-1.021l3.431-11.908a1.362,1.362,0,0,1,.4-.709A24.553,24.553,0,0,0,74.983,48.207Z" transform="translate(-6.4 -25.1)" fill="#6a6ae6" stroke="#6a6ae6" stroke-width="1"/>
    <path id="패스_10499" data-name="패스 10499" d="M54.8,97.423A2.523,2.523,0,1,0,57.323,94.9,2.529,2.529,0,0,0,54.8,97.423Z" transform="translate(-41.078 -75.11)" fill="#6a6ae6" stroke="#6a6ae6" stroke-width="1"/>
    <path id="패스_10500" data-name="패스 10500" d="M109.816,67.6a1.391,1.391,0,0,0-1.389,1.389V70.86a6.96,6.96,0,0,0-1.333.284,6.016,6.016,0,0,0-4.309,6.351c.51,3.742,3.913,4.962,6.663,5.926a10.964,10.964,0,0,1,3.742,1.815,3.234,3.234,0,0,1,1.077,2.438,3.281,3.281,0,0,1-1.134,2.382,5.337,5.337,0,0,1-3.374,1.247,17.766,17.766,0,0,1-4-.34c-.4-.085-.765-.142-1.134-.255a1.408,1.408,0,0,0-.822,2.693c.454.142.936.227,1.418.34a24.211,24.211,0,0,0,3.175.4v1.786a1.389,1.389,0,0,0,2.778,0V93.967a7.771,7.771,0,0,0,3.8-1.786,6.05,6.05,0,0,0,2.07-4.423,5.953,5.953,0,0,0-1.956-4.48,12.458,12.458,0,0,0-4.763-2.438c-2.835-.992-4.565-1.729-4.82-3.629a3.191,3.191,0,0,1,2.325-3.289,9.4,9.4,0,0,1,5.869.539,1.4,1.4,0,0,0,1.021-2.608,14.818,14.818,0,0,0-3.544-.907V69.074A1.373,1.373,0,0,0,109.816,67.6Z" transform="translate(-75.425 -55.55)" fill="#6a6ae6" stroke="#6a6ae6" stroke-width="1"/>
  </g>
</svg>
