<svg xmlns="http://www.w3.org/2000/svg" width="80" height="80" viewBox="0 0 80 80">
  <g id="그룹_43274" data-name="그룹 43274" transform="translate(0 0.25)">
    <rect id="사각형_4836" data-name="사각형 4836" width="80" height="80" transform="translate(0 -0.25)" fill="none"/>
    <g id="_2125342_education_graduation_hat_learn_school_icon" data-name="2125342_education_graduation_hat_learn_school_icon" transform="translate(6.25 11.25)">
      <path id="패스_10502" data-name="패스 10502" d="M126.71,98.924l-32.2-11.5a1.552,1.552,0,0,0-1.044,0l-32.2,11.5a1.552,1.552,0,0,0,.031,2.933l13.041,4.348V121.36a1.551,1.551,0,0,0,1.123,1.491l18.1,5.207a1.55,1.55,0,0,0,.858,0l5.7-1.64a1.552,1.552,0,0,0-.858-2.982l-5.269,1.516-16.545-4.761V107.24L93.5,112.593a1.551,1.551,0,0,0,.982,0l2.883-.961h0l2.428-.809a1.552,1.552,0,0,0-.982-2.944l-4.82,1.607-14.428-4.811-13.016-4.34,27.444-9.8,27.444,9.8-9.838,3.28h0l-1.214.4-1,.334h0l-1.552.517a1.552,1.552,0,1,0,.982,2.944l1.725-.575v12.952l-1.934.557a1.552,1.552,0,1,0,.858,2.982l3.057-.88a1.552,1.552,0,0,0,1.123-1.491V106.205l13.041-4.348a1.552,1.552,0,0,0,.031-2.933Z" transform="translate(-60.239 -87.334)" fill="#6a6ae6" stroke="#6a6ae6" stroke-width="1"/>
      <path id="패스_10503" data-name="패스 10503" d="M260.484,156.268c0-.036,0-.072-.006-.108s-.007-.051-.011-.077-.006-.048-.011-.072-.013-.057-.02-.084-.01-.042-.016-.062-.018-.054-.028-.081-.014-.042-.023-.062-.022-.048-.033-.072-.021-.045-.032-.067-.024-.041-.036-.061-.027-.047-.042-.069-.027-.037-.04-.056-.032-.044-.049-.066-.035-.039-.052-.059-.032-.036-.048-.053-.057-.054-.087-.08l-.024-.022,0,0,0,0-10.376-8.633a1.552,1.552,0,1,0-1.985,2.386l9.824,8.173v27.508a3.79,3.79,0,0,0-3.021,3.706v2.108a3.787,3.787,0,0,0,3.783,3.783h2.108a3.787,3.787,0,0,0,3.783-3.783v-2.108a3.787,3.787,0,0,0-3.55-3.775V156.317h0v-.006C260.486,156.3,260.484,156.282,260.484,156.268Zm.448,31.983v2.108a.68.68,0,0,1-.68.68h-2.108a.68.68,0,0,1-.68-.68v-2.108a.681.681,0,0,1,.68-.68h2.108A.68.68,0,0,1,260.932,188.251Z" transform="translate(-214.801 -135.984)" fill="#6a6ae6" stroke="#6a6ae6" stroke-width="1"/>
    </g>
  </g>
</svg>
