<svg xmlns="http://www.w3.org/2000/svg" width="103.731" height="103.951" viewBox="0 0 103.731 103.951">
  <path id="_8686677_ic_fluent_airplane_regular_icon" data-name="8686677_ic_fluent_airplane_regular_icon" d="M30.2,30.233,27.148,5.816A5.175,5.175,0,0,1,31.641.04l.32-.03L32.71,0A6.679,6.679,0,0,1,38.83,4L50.015,29.572l12.254-.4a8.687,8.687,0,0,1,8.926,7.745l.045.647,0,.289a8.7,8.7,0,0,1-8.724,8.687l-12.5-.413L38.83,71.7a6.679,6.679,0,0,1-6.119,4h-.427a5.175,5.175,0,0,1-5.135-5.816L30.2,45.461l-9.54-.319L16.4,52.605a6.062,6.062,0,0,1-5.264,3.055,4.453,4.453,0,0,1-4.453-4.453v-6.53l-.718-.054a6.831,6.831,0,0,1,0-13.55l.722-.054V24.491a4.453,4.453,0,0,1,4.453-4.453A6.063,6.063,0,0,1,16.4,23.092l4.263,7.459ZM32.71,4.453l-.517.006a.722.722,0,0,0-.627.806L35.222,34.52l-17.1.572L12.53,25.3a1.61,1.61,0,0,0-1.4-.811V35.318l-4.381.155a2.377,2.377,0,0,0,0,4.752l4.381.146V51.207l.34-.036A1.61,1.61,0,0,0,12.53,50.4L18.125,40.6l17.1.572-3.661,29.35a.722.722,0,0,0,.722.722h.427a2.227,2.227,0,0,0,2.04-1.334l12.4-28.34,15.409.511a4.234,4.234,0,0,0,4.234-4.234l0-.141a4.234,4.234,0,0,0-4.374-4.09l-15.271.5L34.75,5.787A2.226,2.226,0,0,0,32.71,4.453Z" transform="translate(0 48.589) rotate(-43)" fill="#6a6ae6"/>
</svg>
