<svg id="그룹_43263" data-name="그룹 43263" xmlns="http://www.w3.org/2000/svg" width="80" height="80" viewBox="0 0 80 80">
  <rect id="사각형_4836" data-name="사각형 4836" width="80" height="80" fill="none"/>
  <g id="_6622962_and_first_fitness_medal_place_icon" data-name="6622962_and_first_fitness_medal_place_icon" transform="translate(16.828 7.274)">
    <path id="타원_36" data-name="타원 36" d="M18.176-5C30.955-5,41.352,4.556,41.352,16.3s-10.4,21.3-23.176,21.3S-5,28.046-5,16.3,5.4-5,18.176-5Zm0,38.961c10.595,0,19.214-7.922,19.214-17.66S28.771-1.359,18.176-1.359-1.038,6.563-1.038,16.3,7.581,33.961,18.176,33.961Z" transform="translate(5 26.393)" fill="#6a6ae6"/>
    <path id="패스_10519" data-name="패스 10519" d="M38.1,26.494a1.983,1.983,0,0,1-1.948-2.355L40.79-.038H7.378L12.02,24.139a1.981,1.981,0,0,1-3.891.747L3.036-1.646a1.981,1.981,0,0,1,.418-1.635A1.981,1.981,0,0,1,4.981-4H43.187a1.981,1.981,0,0,1,1.527.719,1.981,1.981,0,0,1,.418,1.635L40.038,24.886A1.981,1.981,0,0,1,38.1,26.494Z" transform="translate(-0.877 4)" fill="#6a6ae6"/>
    <path id="선_36" data-name="선 36" d="M-1.748,20.824a1.981,1.981,0,0,1-1.976-1.866L-5-2.9A1.981,1.981,0,0,1-3.134-5,1.981,1.981,0,0,1-1.042-3.134L.232,18.728a1.981,1.981,0,0,1-1.862,2.093Q-1.689,20.824-1.748,20.824Z" transform="translate(19.858 5)" fill="#6a6ae6"/>
    <path id="선_37" data-name="선 37" d="M-3.017,20.824c-.039,0-.078,0-.117,0A1.981,1.981,0,0,1-5,18.728L-3.723-3.134A1.981,1.981,0,0,1-1.631-5,1.981,1.981,0,0,1,.232-2.9L-1.042,18.958A1.981,1.981,0,0,1-3.017,20.824Z" transform="translate(31.32 5)" fill="#6a6ae6"/>
    <path id="패스_10520" data-name="패스 10520" d="M13.981,32.942A1.981,1.981,0,0,1,12,30.961V13.981a1.981,1.981,0,1,1,3.962,0V30.961A1.981,1.981,0,0,1,13.981,32.942Z" transform="translate(9.226 19.24)" fill="#6a6ae6"/>
    <path id="선_38" data-name="선 38" d="M5.3-1.038h-8.32A1.981,1.981,0,0,1-5-3.019,1.981,1.981,0,0,1-3.019-5H5.3A1.981,1.981,0,0,1,7.281-3.019,1.981,1.981,0,0,1,5.3-1.038Z" transform="translate(22.035 53.101)" fill="#6a6ae6"/>
    <path id="선_39" data-name="선 39" d="M1.339-1.038H-3.019A1.981,1.981,0,0,1-5-3.019,1.981,1.981,0,0,1-3.019-5H1.339A1.981,1.981,0,0,1,3.32-3.019,1.981,1.981,0,0,1,1.339-1.038Z" transform="translate(22.035 40.796)" fill="#6a6ae6"/>
  </g>
</svg>
