<svg xmlns="http://www.w3.org/2000/svg" width="80" height="80" viewBox="0 0 80 80">
  <g id="그룹_43537" data-name="그룹 43537" transform="translate(0 0.25)">
    <rect id="사각형_4836" data-name="사각형 4836" width="80" height="80" transform="translate(0 -0.25)" fill="none"/>
    <g id="_6623009_holidays_island_summer_vacation_icon" data-name="6623009_holidays_island_summer_vacation_icon" transform="translate(5 5)">
      <path id="타원_35" data-name="타원 35" d="M5.61-5A10.61,10.61,0,1,1-5,5.61,10.622,10.622,0,0,1,5.61-5Zm0,17.956A7.346,7.346,0,1,0-1.735,5.61,7.354,7.354,0,0,0,5.61,12.956Z" transform="translate(42.871 13.815)" fill="#6a6ae6"/>
      <path id="선_28" data-name="선 28" d="M-3.368.55A1.632,1.632,0,0,1-5-1.082V-3.368A1.632,1.632,0,0,1-3.368-5,1.632,1.632,0,0,1-1.735-3.368v2.285A1.632,1.632,0,0,1-3.368.55Z" transform="translate(52.012 5)" fill="#6a6ae6"/>
      <path id="선_29" data-name="선 29" d="M-1.581-.617a1.625,1.625,0,0,1-.864-.248L-4.233-1.984a1.632,1.632,0,0,1-.519-2.249A1.632,1.632,0,0,1-2.5-4.752L-.714-3.634A1.632,1.632,0,0,1-.195-1.385,1.631,1.631,0,0,1-1.581-.617Z" transform="translate(36.533 13.946)" fill="#6a6ae6"/>
      <path id="선_30" data-name="선 30" d="M-1.581-.617a1.625,1.625,0,0,1-.864-.248L-4.233-1.984a1.632,1.632,0,0,1-.519-2.249A1.632,1.632,0,0,1-2.5-4.752L-.714-3.634A1.632,1.632,0,0,1-.195-1.385,1.631,1.631,0,0,1-1.581-.617Z" transform="translate(65.605 30.718)" fill="#6a6ae6"/>
      <path id="선_31" data-name="선 31" d="M-3.367-.617a1.631,1.631,0,0,1-1.386-.767,1.632,1.632,0,0,1,.519-2.249l1.789-1.118a1.632,1.632,0,0,1,2.249.519A1.632,1.632,0,0,1-.714-1.984L-2.5-.866A1.625,1.625,0,0,1-3.367-.617Z" transform="translate(65.605 13.946)" fill="#6a6ae6"/>
      <path id="선_32" data-name="선 32" d="M63.885-1.735H-3.368A1.632,1.632,0,0,1-5-3.368,1.632,1.632,0,0,1-3.368-5H63.885a1.632,1.632,0,0,1,1.632,1.632A1.632,1.632,0,0,1,63.885-1.735Z" transform="translate(5 54.297)" fill="#6a6ae6"/>
      <path id="선_33" data-name="선 33" d="M45.929-1.735h-49.3A1.632,1.632,0,0,1-5-3.368,1.632,1.632,0,0,1-3.368-5h49.3a1.632,1.632,0,0,1,1.632,1.632A1.632,1.632,0,0,1,45.929-1.735Z" transform="translate(13.815 63.112)" fill="#6a6ae6"/>
      <path id="선_34" data-name="선 34" d="M23.4-1.735H-3.368A1.632,1.632,0,0,1-5-3.368,1.632,1.632,0,0,1-3.368-5H23.4a1.632,1.632,0,0,1,1.632,1.632A1.632,1.632,0,0,1,23.4-1.735Z" transform="translate(25.241 72.253)" fill="#6a6ae6"/>
      <path id="패스_10501" data-name="패스 10501" d="M54.3,31.156a1.629,1.629,0,0,1-.573-.1l-1.789-.671A28.4,28.4,0,0,1,37.5,17.444l-11.991-4-23.92,17.4A1.632,1.632,0,1,1-.328,28.2l24.6-17.891a1.632,1.632,0,0,1,1.476-.228l13.418,4.473a1.632,1.632,0,0,1,.944.819A25.082,25.082,0,0,0,53.131,27.34l1.746.654a1.633,1.633,0,0,1-.573,3.161Z" transform="translate(7.709 21.309)" fill="#6a6ae6"/>
    </g>
  </g>
</svg>
