<svg xmlns="http://www.w3.org/2000/svg" width="80" height="80" viewBox="0 0 80 80">
  <g id="그룹_43261" data-name="그룹 43261" transform="translate(-30 -2049.57)">
    <rect id="사각형_4835" data-name="사각형 4835" width="80" height="80" transform="translate(30 2049.57)" fill="none"/>
    <g id="_6588536_birthday_cake_kids_icon" data-name="6588536_birthday_cake_kids_icon" transform="translate(40.238 2057.987)">
      <path id="선_35" data-name="선 35" d="M52.349-1.37H-3.185A1.815,1.815,0,0,1-5-3.185,1.815,1.815,0,0,1-3.185-5H52.349a1.815,1.815,0,0,1,1.815,1.815A1.815,1.815,0,0,1,52.349-1.37Z" transform="translate(5 65.253)" fill="#6a6ae6"/>
      <path id="패스_10509" data-name="패스 10509" d="M49.105,44.719H2.815A1.815,1.815,0,0,1,1,42.9V22.073A11.086,11.086,0,0,1,12.073,11H39.847A11.085,11.085,0,0,1,50.92,22.073V42.9A1.815,1.815,0,0,1,49.105,44.719ZM4.63,41.089H47.291V22.073a7.452,7.452,0,0,0-7.443-7.443H12.073A7.452,7.452,0,0,0,4.63,22.073Z" transform="translate(3.629 19.089)" fill="#6a6ae6"/>
      <path id="사각형_230" data-name="사각형 230" d="M-3.185-5H5.889A1.815,1.815,0,0,1,7.7-3.185V10.608a1.815,1.815,0,0,1-1.815,1.815H-3.185A1.815,1.815,0,0,1-5,10.608V-3.185A1.815,1.815,0,0,1-3.185-5ZM4.074-1.37H-1.37V8.793H4.074Z" transform="translate(28.23 21.334)" fill="#6a6ae6"/>
      <path id="패스_10510" data-name="패스 10510" d="M15.444,13.2A6.451,6.451,0,0,1,9,6.758c0-3.085,3.975-7.1,5.194-8.259a1.815,1.815,0,0,1,2.5,0c1.218,1.158,5.194,5.174,5.194,8.259A6.451,6.451,0,0,1,15.444,13.2Zm0-10.786c-1.5,1.654-2.815,3.529-2.815,4.342a2.814,2.814,0,0,0,5.628,0C18.258,5.942,16.941,4.068,15.445,2.416Z" transform="translate(14.145 2)" fill="#6a6ae6"/>
      <path id="패스_10511" data-name="패스 10511" d="M19.017,21.944a6.408,6.408,0,0,1-4.909-2.315H2.815a1.815,1.815,0,1,1,0-3.63H15.082a1.815,1.815,0,0,1,1.623,1,2.693,2.693,0,0,0,4.623,0,1.815,1.815,0,0,1,1.623-1H49.105a1.815,1.815,0,0,1,0,3.63H23.926A6.408,6.408,0,0,1,19.017,21.944Z" transform="translate(3.629 25.661)" fill="#6a6ae6"/>
      <path id="패스_10512" data-name="패스 10512" d="M32.9,25.944a6.408,6.408,0,0,1-4.909-2.315H2.815a1.815,1.815,0,0,1,0-3.63H28.969a1.815,1.815,0,0,1,1.623,1,2.693,2.693,0,0,0,4.623,0,1.815,1.815,0,0,1,1.623-1H49.105a1.815,1.815,0,0,1,0,3.63H37.813A6.408,6.408,0,0,1,32.9,25.944Z" transform="translate(3.629 30.92)" fill="#6a6ae6"/>
    </g>
  </g>
</svg>
