<svg id="그룹_43265" data-name="그룹 43265" xmlns="http://www.w3.org/2000/svg" width="80" height="80" viewBox="0 0 80 80">
  <rect id="사각형_4841" data-name="사각형 4841" width="80" height="80" fill="none"/>
  <g id="_45-Note" data-name="45-Note" transform="translate(11.25 7.36)">
    <path id="패스_10529" data-name="패스 10529" d="M8.909-4H25.3a1.909,1.909,0,0,1,1.909,1.909V6.1A1.909,1.909,0,0,1,25.3,8.013H8.909A1.909,1.909,0,0,1,7,6.1v-8.2A1.909,1.909,0,0,1,8.909-4ZM23.39-.182H10.818V4.2H23.39Z" transform="translate(7.341 4)" fill="#6a6ae6"/>
    <path id="패스_10530" data-name="패스 10530" d="M46.982,59.183H1.909A1.909,1.909,0,0,1,0,57.274V-.091A1.909,1.909,0,0,1,1.909-2H16.25V1.818H3.818V55.366H45.073V49.079h3.818v8.2A1.909,1.909,0,0,1,46.982,59.183Z" transform="translate(0 6.098)" fill="#6a6ae6"/>
    <path id="패스_10531" data-name="패스 10531" d="M36.25,40.884H32.433V1.818H20V-2H34.341A1.909,1.909,0,0,1,36.25-.091Z" transform="translate(12.64 6.098)" fill="#6a6ae6"/>
    <path id="패스_10532" data-name="패스 10532" d="M44.689,30.013H11.909A1.909,1.909,0,0,1,10,28.1v-8.2A1.909,1.909,0,0,1,11.909,18h32.78A1.909,1.909,0,0,1,46.6,19.909v8.2A1.909,1.909,0,0,1,44.689,30.013ZM13.818,26.2H42.78V21.818H13.818Z" transform="translate(10.488 27.073)" fill="#6a6ae6"/>
    <path id="패스_10533" data-name="패스 10533" d="M16.444,30.1,6.2,26a1.909,1.909,0,0,1,0-3.545l10.244-4.1L17.862,21.9l-5.813,2.325,5.813,2.325Z" transform="translate(5.244 26.852)" fill="#6a6ae6"/>
    <path id="선_40" data-name="선 40" d="M32.831-1.182H0V-5H32.831Z" transform="translate(8.017 23.706)" fill="#6a6ae6"/>
    <path id="선_41" data-name="선 41" d="M32.831-1.182H0V-5H32.831Z" transform="translate(8.017 31.723)" fill="#6a6ae6"/>
    <path id="선_42" data-name="선 42" d="M32.831-1.182H0V-5H32.831Z" transform="translate(8.017 40.122)" fill="#6a6ae6"/>
  </g>
</svg>
