<svg xmlns="http://www.w3.org/2000/svg" xmlns:xlink="http://www.w3.org/1999/xlink" width="80" height="80" viewBox="0 0 80 80">
  <defs>
    <clipPath id="clip-path">
      <rect id="사각형_4777" data-name="사각형 4777" width="67.157" height="73" transform="translate(-4)" fill="none" stroke="#6a6ae6" stroke-linecap="round" stroke-width="3"/>
    </clipPath>
  </defs>
  <g id="그룹_43415" data-name="그룹 43415" transform="translate(-49 -1463)">
    <path id="패스_81681" data-name="패스 81681" d="M0,0H80V80H0Z" transform="translate(49 1463)" fill="#fff" opacity="0"/>
    <g id="그룹_43233" data-name="그룹 43233" transform="translate(59.421 1468)" clip-path="url(#clip-path)">
      <path id="패스_81675" data-name="패스 81675" d="M32.06,18.951c-.1,0-.193.013-.29.014v7.286a6.011,6.011,0,1,1,0,11.839v.27a18.95,18.95,0,0,1-1.807,8.057,13.814,13.814,0,1,0,2.1-27.466Z" transform="translate(13.639 8.38)" fill="none" stroke="#6a6ae6" stroke-linecap="round" stroke-miterlimit="10" stroke-width="3"/>
      <path id="패스_81676" data-name="패스 81676" d="M1.215,18.489V39.834a19.05,19.05,0,0,0,19.05,19.05h5.166a19.1,19.1,0,0,0,19.05-19.05V18.489a2.871,2.871,0,0,0-2.871-2.871H4.086A2.871,2.871,0,0,0,1.215,18.489Z" transform="translate(0.928 6.906)" fill="none" stroke="#6a6ae6" stroke-linecap="round" stroke-miterlimit="10" stroke-width="3"/>
      <path id="패스_81677" data-name="패스 81677" d="M1.313,26.1s11.5-6.609,19.4,0a23.033,23.033,0,0,0,7.863,4.28c5.88,1.868,12.021.65,15.727-4.28.428-.57.206-1.665.406-2.179" transform="translate(0.863 10.243)" fill="none" stroke="#6a6ae6" stroke-linecap="round" stroke-miterlimit="10" stroke-width="3"/>
      <path id="패스_81678" data-name="패스 81678" d="M7.87.821s5.795,4.034,1.468,6.918.324,7.234,1.6,7.222" transform="translate(3.722 0.363)" fill="none" stroke="#6a6ae6" stroke-linecap="round" stroke-miterlimit="10" stroke-width="3"/>
      <path id="패스_81679" data-name="패스 81679" d="M15.37.821s5.795,4.034,1.468,6.918.324,7.234,1.6,7.222" transform="translate(7.038 0.363)" fill="none" stroke="#6a6ae6" stroke-linecap="round" stroke-miterlimit="10" stroke-width="3"/>
      <path id="패스_81680" data-name="패스 81680" d="M22.87.821s5.795,4.034,1.468,6.918.324,7.234,1.6,7.222" transform="translate(10.354 0.363)" fill="none" stroke="#6a6ae6" stroke-linecap="round" stroke-miterlimit="10" stroke-width="3"/>
    </g>
  </g>
</svg>
