<svg xmlns="http://www.w3.org/2000/svg" xmlns:xlink="http://www.w3.org/1999/xlink" width="80" height="80" viewBox="0 0 80 80">
  <defs>
    <clipPath id="clip-path">
      <rect id="사각형_231" data-name="사각형 231" width="65.748" height="61.387" fill="#6a6ae6"/>
    </clipPath>
  </defs>
  <g id="그룹_43262" data-name="그룹 43262" transform="translate(-233 -2073.164)">
    <rect id="사각형_4836" data-name="사각형 4836" width="80" height="80" transform="translate(233 2073.164)" fill="none"/>
    <g id="그룹_43260" data-name="그룹 43260" transform="translate(240.101 2082.243)">
      <g id="그룹_18784" data-name="그룹 18784" transform="translate(0 0)" clip-path="url(#clip-path)">
        <path id="패스_10513" data-name="패스 10513" d="M9.7,7.8a1.685,1.685,0,1,1,3.283.766L8.4,28.277a1.685,1.685,0,1,1-3.283-.762Z" transform="translate(12.016 15.412)" fill="#6a6ae6"/>
        <path id="패스_10514" data-name="패스 10514" d="M14.156,7.1a1.682,1.682,0,0,0-2.022,1.262L7.548,28.079a1.685,1.685,0,1,0,3.283.766L15.417,9.128A1.689,1.689,0,0,0,14.156,7.1" transform="translate(17.786 16.758)" fill="#6a6ae6"/>
        <path id="패스_10515" data-name="패스 10515" d="M14.57,8.93a1.684,1.684,0,1,1,3.279.766L13.266,29.41a1.685,1.685,0,1,1-3.283-.762Z" transform="translate(23.556 18.102)" fill="#6a6ae6"/>
        <path id="패스_10516" data-name="패스 10516" d="M45.991,5.779a8.435,8.435,0,0,1,6.3,10.128l-8.978,38.61a5.894,5.894,0,0,1-7.081,4.41L11.609,53.192A5.906,5.906,0,0,1,7.2,46.1l.957-4.109-1.641-.381a8.435,8.435,0,0,1-6.3-10.128L4.04,15.054a8.429,8.429,0,0,1,10.117-6.3l1.641.385.384-1.643A8.423,8.423,0,0,1,26.3,1.191ZM15.033,12.422l-1.641-.385a5.056,5.056,0,0,0-6.07,3.782L3.5,32.25a5.06,5.06,0,0,0,3.778,6.076l1.641.381ZM49,15.142a5.06,5.06,0,0,0-3.778-6.076L25.535,4.477a5.053,5.053,0,0,0-6.07,3.779L19.081,9.9l29.543,6.886Zm-1.146,4.929L18.316,13.185,10.484,46.866a2.531,2.531,0,0,0,1.891,3.04L36.99,55.641a2.528,2.528,0,0,0,3.036-1.889Z" transform="translate(0.001 2.302)" fill="#6a6ae6"/>
        <path id="패스_10517" data-name="패스 10517" d="M21.916,13.286a6.643,6.643,0,1,1,6.636-6.643,6.649,6.649,0,0,1-6.636,6.643m0-9.912a3.269,3.269,0,1,0,3.266,3.269,3.273,3.273,0,0,0-3.266-3.269" transform="translate(36.208 0.001)" fill="#6a6ae6"/>
        <path id="패스_10518" data-name="패스 10518" d="M21.4,13.7a4.661,4.661,0,1,1,4.654-4.663A4.663,4.663,0,0,1,21.4,13.7m0-5.948a1.287,1.287,0,1,0,1.284,1.285A1.287,1.287,0,0,0,21.4,7.748" transform="translate(39.692 10.384)" fill="#6a6ae6"/>
      </g>
    </g>
  </g>
</svg>
