<svg xmlns="http://www.w3.org/2000/svg" xmlns:xlink="http://www.w3.org/1999/xlink" width="80" height="80" viewBox="0 0 80 80">
  <defs>
    <clipPath id="clip-path">
      <rect id="사각형_229" data-name="사각형 229" width="59.944" height="66.046" fill="#6a6ae6"/>
    </clipPath>
  </defs>
  <g id="그룹_43539" data-name="그룹 43539" transform="translate(0 0.25)">
    <g id="그룹_43538" data-name="그룹 43538" transform="translate(10 7.5)">
      <g id="그룹_18782" data-name="그룹 18782" clip-path="url(#clip-path)">
        <path id="패스_10504" data-name="패스 10504" d="M54.252,30.718H2.359a2.359,2.359,0,0,1,0-4.718H54.252a2.359,2.359,0,0,1,0,4.718" transform="translate(0 35.328)" fill="#6a6ae6"/>
        <path id="패스_10505" data-name="패스 10505" d="M21.012,25.947a2.36,2.36,0,0,1-2.359-2.359V22.408a1.18,1.18,0,0,0-1.179-1.179H10.4a5.9,5.9,0,0,1,0-11.794H32.805a2.359,2.359,0,1,0,0-4.718H9.218A2.359,2.359,0,1,1,9.218,0H32.805a7.076,7.076,0,1,1,0,14.153H10.4a1.179,1.179,0,0,0,0,2.359h7.076a5.9,5.9,0,0,1,5.9,5.9v1.179a2.36,2.36,0,0,1-2.359,2.359" transform="translate(6.115)" fill="#6a6ae6"/>
        <path id="패스_10506" data-name="패스 10506" d="M23.67,14.12v4.93a5.873,5.873,0,0,1-.991,11.11,24.727,24.727,0,0,1-2,4.906h.637A10.615,10.615,0,0,0,23.67,14.12" transform="translate(28.092 19.186)" fill="#6a6ae6"/>
        <path id="패스_10507" data-name="패스 10507" d="M46.817,12H4.359A2.36,2.36,0,0,0,2,14.359V26.153a23.588,23.588,0,0,0,47.176,0V14.359A2.36,2.36,0,0,0,46.817,12M25.588,45.023c-6.727,0-18.87-4.72-18.87-23.069V16.718H44.458v5.567c0,18.016-11.794,22.739-18.87,22.739" transform="translate(2.718 16.305)" fill="#6a6ae6"/>
      </g>
    </g>
    <rect id="사각형_4965" data-name="사각형 4965" width="80" height="80" transform="translate(0 -0.25)" fill="none"/>
  </g>
</svg>
