<svg xmlns="http://www.w3.org/2000/svg" width="80" height="80" viewBox="0 0 80 80">
  <g id="그룹_43266" data-name="그룹 43266" transform="translate(0 0.25)">
    <rect id="사각형_4842" data-name="사각형 4842" width="80" height="80" transform="translate(0 -0.25)" fill="none"/>
    <g id="_8687708_ic_fluent_rocket_regular_icon" data-name="8687708_ic_fluent_rocket_regular_icon" transform="translate(6.25 6.25)">
      <path id="패스_10541" data-name="패스 10541" d="M12.771,8.443a8.889,8.889,0,1,1,0,12.568A8.887,8.887,0,0,1,12.771,8.443Zm9.423,3.147a4.438,4.438,0,1,0,0,6.279A4.44,4.44,0,0,0,22.195,11.59Z" transform="translate(22.495 11.232)" fill="#6a6ae6"/>
      <path id="패스_10542" data-name="패스 10542" d="M37.644,57.6a6.673,6.673,0,0,1-7.576-1.312l-2.71-2.709L24.1,59.009a2.223,2.223,0,0,1-3.479.429L8.035,46.849a2.224,2.224,0,0,1,.429-3.48l5.428-3.253L11.18,37.4a6.674,6.674,0,0,1-1.312-7.576l-4.98-4.979a2.224,2.224,0,0,1,0-3.145L9.6,16.99a13.356,13.356,0,0,1,15.177-2.619L28.948,10.2A27.993,27.993,0,0,1,57.1,3.28a10.814,10.814,0,0,1,7.092,7.091A27.994,27.994,0,0,1,57.27,38.524L53.1,42.693a13.355,13.355,0,0,1-2.619,15.178l-4.714,4.714a2.223,2.223,0,0,1-3.145,0ZM55.773,7.525a23.546,23.546,0,0,0-23.68,5.822l-3.627,3.627.017.017-3.145,3.145-.017-.017-9.437,9.437.017.017-1.79,1.79a2.224,2.224,0,0,0,.214,2.9L33.213,53.148a2.224,2.224,0,0,0,2.9.209L37.9,51.572l.016.016,9.437-9.437-.016-.016,3.145-3.145.016.016,3.627-3.627A23.547,23.547,0,0,0,59.948,11.7,6.366,6.366,0,0,0,55.773,7.525ZM41.062,54.733,44.2,57.867l3.141-3.141a8.9,8.9,0,0,0,2.311-8.581ZM21.326,17.824a8.9,8.9,0,0,0-8.58,2.311L9.605,23.276l3.134,3.134Zm2.791,32.517-6.983-6.983-3.939,2.361,8.56,8.56Z" transform="translate(2.042 -2.002)" fill="#6a6ae6"/>
      <path id="패스_10543" data-name="패스 10543" d="M14.84,17.855A2.224,2.224,0,0,0,11.7,14.71L3.832,22.574a2.224,2.224,0,0,0,3.145,3.145Z" transform="translate(-1.598 39.559)" fill="#6a6ae6"/>
      <path id="패스_10544" data-name="패스 10544" d="M9.774,13.295a2.224,2.224,0,0,1,0,3.145L6.621,19.592a2.224,2.224,0,1,1-3.145-3.145l3.153-3.153A2.224,2.224,0,0,1,9.774,13.295Z" transform="translate(-2.825 34.68)" fill="#6a6ae6"/>
      <path id="패스_10545" data-name="패스 10545" d="M12.6,19.27A2.224,2.224,0,0,0,9.46,16.125L6.307,19.278a2.224,2.224,0,1,0,3.145,3.145Z" transform="translate(6.933 44.438)" fill="#6a6ae6"/>
    </g>
  </g>
</svg>
