<svg xmlns="http://www.w3.org/2000/svg" width="69.461" height="21" viewBox="0 0 69.461 21">
  <g id="그룹_43522" data-name="그룹 43522" transform="translate(-30.706 -2562.306)">
    <path id="패스_69619" data-name="패스 69619" d="M563.967,139.98c-2.245,0-4.3-1.453-6.282-2.858-1.678-1.188-3.414-2.416-4.9-2.416s-3.217,1.228-4.895,2.416c-1.985,1.4-4.037,2.858-6.282,2.858s-4.3-1.453-6.281-2.857c-1.678-1.189-3.414-2.417-4.9-2.417s-3.217,1.228-4.895,2.417c-1.985,1.4-4.037,2.857-6.281,2.857s-4.3-1.453-6.282-2.858c-1.678-1.188-3.414-2.416-4.9-2.416s-3.217,1.228-4.9,2.416c-1.985,1.4-4.037,2.858-6.282,2.858a1.2,1.2,0,1,1,0-2.4c1.481,0,3.217-1.228,4.895-2.417,1.986-1.4,4.038-2.857,6.282-2.857s4.3,1.453,6.282,2.858c1.678,1.188,3.414,2.416,4.9,2.416s3.216-1.228,4.894-2.416c1.986-1.4,4.038-2.858,6.282-2.858s4.3,1.453,6.283,2.858c1.678,1.188,3.414,2.416,4.894,2.416s3.217-1.228,4.9-2.416c1.985-1.4,4.038-2.858,6.282-2.858s4.3,1.453,6.282,2.857c1.678,1.189,3.414,2.417,4.895,2.417a1.2,1.2,0,1,1,0,2.4" transform="translate(-465 2430)" fill="#fff" style="mix-blend-mode: overlay;isolation: isolate"/>
    <path id="패스_69620" data-name="패스 69620" d="M563.967,146.643c-2.245,0-4.3-1.453-6.282-2.858-1.678-1.188-3.414-2.416-4.9-2.416s-3.217,1.228-4.895,2.416c-1.985,1.4-4.037,2.858-6.282,2.858s-4.3-1.453-6.281-2.857c-1.678-1.189-3.414-2.417-4.9-2.417s-3.217,1.228-4.895,2.417c-1.985,1.4-4.037,2.857-6.281,2.857s-4.3-1.453-6.282-2.858c-1.678-1.188-3.414-2.416-4.9-2.416s-3.217,1.228-4.9,2.416c-1.985,1.4-4.037,2.858-6.282,2.858a1.2,1.2,0,1,1,0-2.4c1.481,0,3.217-1.228,4.895-2.417,1.986-1.4,4.038-2.857,6.282-2.857s4.3,1.453,6.282,2.858c1.678,1.188,3.414,2.416,4.9,2.416s3.216-1.228,4.894-2.416c1.986-1.4,4.038-2.858,6.282-2.858s4.3,1.453,6.283,2.858c1.678,1.188,3.414,2.416,4.894,2.416s3.217-1.228,4.9-2.416c1.985-1.4,4.038-2.858,6.282-2.858s4.3,1.453,6.282,2.857c1.678,1.189,3.414,2.417,4.895,2.417a1.2,1.2,0,1,1,0,2.4" transform="translate(-465 2430)" fill="#fff" style="mix-blend-mode: overlay;isolation: isolate"/>
    <path id="패스_69621" data-name="패스 69621" d="M563.967,153.306c-2.245,0-4.3-1.453-6.282-2.858-1.678-1.188-3.414-2.416-4.9-2.416s-3.217,1.228-4.895,2.416c-1.985,1.4-4.037,2.858-6.282,2.858s-4.3-1.453-6.281-2.857c-1.678-1.189-3.414-2.417-4.9-2.417s-3.217,1.228-4.895,2.417c-1.985,1.4-4.037,2.857-6.281,2.857s-4.3-1.453-6.282-2.858c-1.678-1.188-3.414-2.416-4.9-2.416s-3.217,1.228-4.9,2.416c-1.985,1.4-4.037,2.858-6.282,2.858a1.2,1.2,0,1,1,0-2.4c1.481,0,3.217-1.229,4.895-2.417,1.986-1.4,4.038-2.857,6.282-2.857s4.3,1.453,6.282,2.858c1.678,1.187,3.414,2.416,4.9,2.416s3.216-1.229,4.894-2.416c1.986-1.4,4.038-2.858,6.282-2.858s4.3,1.453,6.283,2.858c1.678,1.187,3.414,2.416,4.894,2.416s3.217-1.229,4.9-2.416c1.985-1.4,4.038-2.858,6.282-2.858s4.3,1.453,6.282,2.857c1.678,1.188,3.414,2.417,4.895,2.417a1.2,1.2,0,1,1,0,2.4" transform="translate(-465 2430)" fill="#fff" style="mix-blend-mode: overlay;isolation: isolate"/>
  </g>
</svg>
