<svg xmlns="http://www.w3.org/2000/svg" width="68" height="68" viewBox="0 0 68 68">
  <g id="그룹_43206" data-name="그룹 43206" transform="translate(-1015.636 -1385.362)">
    <g id="그룹_43203" data-name="그룹 43203" transform="translate(1015.636 1385.362)">
      <path id="패스_81625" data-name="패스 81625" d="M1049.636,1385.362a34,34,0,1,0,16.1,63.942c7.037,4.012,16.327,4.058,16.73,4.058a1.172,1.172,0,0,0,.829-2c-3.973-3.975-5.4-9.3-5.9-12.4a33.58,33.58,0,0,0,6.244-19.6A34.038,34.038,0,0,0,1049.636,1385.362Zm30.132,65.5c-3.309-.3-9.013-1.214-13.4-3.907a1.2,1.2,0,0,0-1.191-.023,31.65,31.65,0,1,1,16.114-27.57,31.265,31.265,0,0,1-6.078,18.612,1.176,1.176,0,0,0-.215.861A26.887,26.887,0,0,0,1079.768,1450.862Z" transform="translate(-1015.636 -1385.362)"/>
    </g>
    <g id="그룹_43205" data-name="그룹 43205" transform="translate(1037.354 1398.487)">
      <path id="패스_81626" data-name="패스 81626" d="M1088.649,1435.866h-3.267a5.264,5.264,0,0,1-5.264-5.264h0" transform="translate(-1078.501 -1427.231)" fill="none" stroke="#000" stroke-linejoin="round" stroke-width="1"/>
      <path id="패스_81627" data-name="패스 81627" d="M1123.666,1450.677h0a5.264,5.264,0,0,0-5.264-5.264h-3.391" transform="translate(-1100.994 -1436.778)" fill="none" stroke="#000" stroke-linejoin="round" stroke-width="1"/>
      <g id="그룹_43204" data-name="그룹 43204" transform="translate(3.371 10.389)">
        <path id="패스_81628" data-name="패스 81628" d="M1085.055,1466.142h0a7.7,7.7,0,0,1,5.264,7.3v1.47h7.019v-1.47a7.7,7.7,0,0,1,5.264-7.3h0a31.538,31.538,0,0,1-7.618-12.326l-1.155-3.465-1.155,3.465A31.537,31.537,0,0,1,1085.055,1466.142Zm7.018-1.755a1.755,1.755,0,1,1,1.755,1.755A1.755,1.755,0,0,1,1092.073,1464.388Z" transform="translate(-1085.055 -1450.351)" fill="none" stroke="#000" stroke-linejoin="round" stroke-width="1"/>
        <rect id="사각형_4252" data-name="사각형 4252" width="10.528" height="3.509" transform="translate(14.037 28.074) rotate(180)" fill="none" stroke="#000" stroke-linejoin="round" stroke-width="1"/>
        <line id="선_34" data-name="선 34" y2="12.282" transform="translate(8.773)" fill="#fff" stroke="#000" stroke-linecap="round" stroke-linejoin="round" stroke-width="1"/>
        <rect id="사각형_4253" data-name="사각형 4253" width="7.018" height="3.287" transform="translate(12.282 31.361) rotate(180)" fill="none" stroke="#000" stroke-linejoin="round" stroke-width="1"/>
      </g>
      <rect id="사각형_4254" data-name="사각형 4254" width="3.509" height="3.509" transform="translate(13.899 10.389) rotate(180)" fill="none" stroke="#000" stroke-linejoin="round" stroke-width="1"/>
      <rect id="사각형_4255" data-name="사각형 4255" width="3.509" height="3.509" transform="translate(24.564 17.546) rotate(180)" fill="none" stroke="#000" stroke-linejoin="round" stroke-width="1"/>
      <rect id="사각형_4256" data-name="사각형 4256" width="3.509" height="3.509" transform="translate(3.509 3.509) rotate(180)" fill="none" stroke="#000" stroke-linejoin="round" stroke-width="1"/>
    </g>
  </g>
</svg>
