<svg xmlns="http://www.w3.org/2000/svg" width="68" height="68" viewBox="0 0 68 68">
  <g id="그룹_43594" data-name="그룹 43594" transform="translate(-550.618 -1378.956)">
    <g id="그룹_43191" data-name="그룹 43191" transform="translate(550.618 1378.956)">
      <path id="패스_81617" data-name="패스 81617" d="M584.618,1378.956a34,34,0,1,0,16.1,63.943c7.036,4.012,16.326,4.058,16.729,4.058a1.172,1.172,0,0,0,.829-2c-3.973-3.975-5.4-9.3-5.9-12.4a33.578,33.578,0,0,0,6.245-19.6A34.038,34.038,0,0,0,584.618,1378.956Zm30.132,65.5c-3.309-.3-9.013-1.214-13.4-3.906a1.2,1.2,0,0,0-1.191-.023,31.65,31.65,0,1,1,16.114-27.57,31.265,31.265,0,0,1-6.077,18.612,1.175,1.175,0,0,0-.216.861A26.884,26.884,0,0,0,614.75,1444.456Z" transform="translate(-550.618 -1378.956)"/>
    </g>
    <g id="그룹_43198" data-name="그룹 43198" transform="translate(564.955 1393.134)">
      <g id="그룹_43193" data-name="그룹 43193" transform="translate(9.684 9.646)">
        <path id="패스_81618" data-name="패스 81618" d="M632.732,1466.927v-1.48a1.55,1.55,0,0,1,.685-1.243,10.309,10.309,0,0,0,4.328-8.44,10.019,10.019,0,1,0-20.033,0,10.309,10.309,0,0,0,4.329,8.44,1.551,1.551,0,0,1,.685,1.243v1.8" transform="translate(-617.712 -1445.508)" fill="none" stroke="#000" stroke-linecap="round" stroke-linejoin="round" stroke-width="1"/>
        <line id="선_25" data-name="선 25" y2="6.481" transform="translate(11.739 14.546)" fill="#fff" stroke="#000" stroke-linecap="round" stroke-linejoin="round" stroke-width="1"/>
        <line id="선_26" data-name="선 26" y2="7.071" transform="translate(8.136 13.956)" fill="#fff" stroke="#000" stroke-linecap="round" stroke-linejoin="round" stroke-width="1"/>
        <path id="패스_81619" data-name="패스 81619" d="M642.525,1517.43a1.885,1.885,0,0,1,.152.807,2.9,2.9,0,1,1-5.8,0,1.83,1.83,0,0,1,.173-.85" transform="translate(-629.897 -1491.207)" fill="none" stroke="#000" stroke-linecap="round" stroke-linejoin="round" stroke-width="1"/>
        <path id="패스_81620" data-name="패스 81620" d="M631.471,1503.358v3.177a1.926,1.926,0,0,0,1.907,1.942h6.2a1.925,1.925,0,0,0,1.907-1.942v-3.177Z" transform="translate(-626.46 -1482.288)" fill="none" stroke="#000" stroke-linecap="round" stroke-linejoin="round" stroke-width="1"/>
        <g id="그룹_43192" data-name="그룹 43192" transform="translate(4.915 10.362)">
          <path id="패스_81621" data-name="패스 81621" d="M634.323,1477.52a1.9,1.9,0,0,1-1.179.408,1.965,1.965,0,0,1-1.938-1.985c0-1.094,1.881-3.3,4.97.01,1.267,1.312,1.938,1.975,3,1.975a1.986,1.986,0,0,0,0-3.97,1.9,1.9,0,0,0-1.178.408" transform="translate(-631.207 -1473.957)" fill="none" stroke="#000" stroke-linecap="round" stroke-miterlimit="10" stroke-width="1"/>
        </g>
      </g>
      <g id="그룹_43194" data-name="그룹 43194" transform="translate(0 19.663)">
        <line id="선_27" data-name="선 27" x2="4.701" fill="#e8f2fc" stroke="#000" stroke-linecap="round" stroke-linejoin="round" stroke-width="1"/>
        <line id="선_28" data-name="선 28" x2="4.7" transform="translate(34.627)" fill="#e8f2fc" stroke="#000" stroke-linecap="round" stroke-linejoin="round" stroke-width="1"/>
      </g>
      <g id="그룹_43195" data-name="그룹 43195" transform="translate(5.759 5.759)">
        <line id="선_29" data-name="선 29" y1="3.324" x2="3.323" transform="translate(0 24.485)" fill="#e8f2fc" stroke="#000" stroke-linecap="round" stroke-linejoin="round" stroke-width="1"/>
        <line id="선_30" data-name="선 30" y1="3.324" x2="3.323" transform="translate(24.485)" fill="#e8f2fc" stroke="#000" stroke-linecap="round" stroke-linejoin="round" stroke-width="1"/>
      </g>
      <g id="그룹_43196" data-name="그룹 43196" transform="translate(19.663 0)">
        <line id="선_31" data-name="선 31" y1="4.699" fill="#e8f2fc" stroke="#000" stroke-linecap="round" stroke-linejoin="round" stroke-width="1"/>
      </g>
      <g id="그룹_43197" data-name="그룹 43197" transform="translate(5.759 5.759)">
        <line id="선_32" data-name="선 32" x1="3.323" y1="3.324" transform="translate(24.485 24.485)" fill="#e8f2fc" stroke="#000" stroke-linecap="round" stroke-linejoin="round" stroke-width="1"/>
        <line id="선_33" data-name="선 33" x1="3.323" y1="3.323" fill="#e8f2fc" stroke="#000" stroke-linecap="round" stroke-linejoin="round" stroke-width="1"/>
      </g>
    </g>
  </g>
</svg>
