<svg xmlns="http://www.w3.org/2000/svg" width="68" height="68" viewBox="0 0 68 68">
  <g id="그룹_43202" data-name="그룹 43202" transform="translate(-779.353 -1381.111)">
    <g id="그룹_43200" data-name="그룹 43200" transform="translate(779.353 1381.111)">
      <path id="패스_81622" data-name="패스 81622" d="M813.353,1381.111a34,34,0,1,0,16.1,63.942c7.037,4.012,16.327,4.058,16.73,4.058a1.172,1.172,0,0,0,.829-2c-3.973-3.975-5.4-9.3-5.9-12.4a33.577,33.577,0,0,0,6.245-19.6A34.038,34.038,0,0,0,813.353,1381.111Zm30.132,65.5c-3.309-.3-9.013-1.214-13.4-3.906a1.2,1.2,0,0,0-1.191-.023,31.65,31.65,0,1,1,16.114-27.57,31.265,31.265,0,0,1-6.077,18.612,1.173,1.173,0,0,0-.215.861A26.879,26.879,0,0,0,843.485,1446.61Z" transform="translate(-779.353 -1381.111)"/>
    </g>
    <g id="그룹_43201" data-name="그룹 43201" transform="translate(796.654 1398.416)">
      <path id="패스_81623" data-name="패스 81623" d="M885.835,1494.7a1.074,1.074,0,0,0,1.123,1.023,1.1,1.1,0,0,0,1.054-1.138.747.747,0,0,1,.49-.739,5.876,5.876,0,0,0,1.169-.58.731.731,0,0,1,.886.033,1.09,1.09,0,1,0,1.481-1.6.817.817,0,0,1-.175-.943,5.81,5.81,0,0,0,.4-1.175.734.734,0,0,1,.657-.593,1.1,1.1,0,0,0,1.063-1.14,1.088,1.088,0,0,0-1.137-1.037.758.758,0,0,1-.762-.49,5.911,5.911,0,0,0-.557-1.175.74.74,0,0,1,.039-.888,1.09,1.09,0,1,0-1.606-1.474.719.719,0,0,1-.848.16,5.827,5.827,0,0,0-1.357-.48.657.657,0,0,1-.507-.617,1.062,1.062,0,0,0-1.11-1.012l-.048,0a1.069,1.069,0,0,0-1.019,1.115.715.715,0,0,1-.511.688,5.9,5.9,0,0,0-1.316.636.638.638,0,0,1-.775-.067,1.028,1.028,0,0,0-1.454.066l-.071.079a1.043,1.043,0,0,0,.067,1.474.7.7,0,0,1,.124.831,5.85,5.85,0,0,0-.476,1.394.642.642,0,0,1-.591.519,1.02,1.02,0,0,0-.972,1.067l0,.112a1.046,1.046,0,0,0,1.095,1,.658.658,0,0,1,.659.436,5.9,5.9,0,0,0,.676,1.369.644.644,0,0,1-.052.791,1.038,1.038,0,0,0,.068,1.466l.049.045a1.074,1.074,0,0,0,1.519-.071.717.717,0,0,1,.835-.149,5.82,5.82,0,0,0,1.375.451A.647.647,0,0,1,885.835,1494.7Zm-1.569-6.3a2.21,2.21,0,1,1,2.34,2.073A2.211,2.211,0,0,1,884.267,1488.4Z" transform="translate(-860.586 -1462.339)" fill="none" stroke="#000" stroke-linecap="round" stroke-linejoin="round" stroke-width="1"/>
      <path id="패스_81624" data-name="패스 81624" d="M830.974,1447.239a1.09,1.09,0,0,0,1.917,1.039l.31-.573a.774.774,0,0,1,.928-.343,9.5,9.5,0,0,0,1.3.317.747.747,0,0,1,.614.725l.017.635a1.089,1.089,0,1,0,2.178-.058l-.016-.614a.768.768,0,0,1,.632-.756,9.5,9.5,0,0,0,1.3-.369.765.765,0,0,1,.911.322l.3.489a1.09,1.09,0,0,0,1.859-1.14l-.278-.453a.761.761,0,0,1,.175-.966,9.3,9.3,0,0,0,.967-.983.78.78,0,0,1,.962-.192l.416.228a1.09,1.09,0,0,0,1.039-1.917l-.374-.2a.726.726,0,0,1-.348-.875,9.278,9.278,0,0,0,.375-1.416.791.791,0,0,1,.74-.668l.367-.01a1.089,1.089,0,1,0-.057-2.178l-.329.008a.73.73,0,0,1-.742-.583,9.322,9.322,0,0,0-.4-1.436.8.8,0,0,1,.3-.967l.242-.149a1.09,1.09,0,0,0-1.139-1.859l-.222.137a.734.734,0,0,1-.936-.129,9.252,9.252,0,0,0-1.134-1.089.755.755,0,0,1-.192-.946l.117-.214a1.09,1.09,0,1,0-1.917-1.04l-.117.216a.753.753,0,0,1-.894.355,9.36,9.36,0,0,0-1.465-.347.781.781,0,0,1-.689-.724l-.006-.259a1.09,1.09,0,1,0-2.18.057l.008.285a.753.753,0,0,1-.58.76,9.462,9.462,0,0,0-1.425.441.777.777,0,0,1-.959-.277l-.172-.28a1.089,1.089,0,0,0-1.857,1.138l.193.316a.8.8,0,0,1-.168,1,9.372,9.372,0,0,0-.945,1.042.754.754,0,0,1-.95.219l-.375-.2a1.089,1.089,0,1,0-1.039,1.914l.417.228a.806.806,0,0,1,.352.951,9.11,9.11,0,0,0-.288,1.347.735.735,0,0,1-.711.632l-.531.016a1.09,1.09,0,1,0,.059,2.179l.571-.016a.794.794,0,0,1,.777.628,9.344,9.344,0,0,0,.407,1.29.742.742,0,0,1-.3.9l-.523.321a1.089,1.089,0,1,0,1.139,1.857l.542-.331a.774.774,0,0,1,.97.148,9.17,9.17,0,0,0,.98.914.751.751,0,0,1,.186.941ZM834,1436.917a3.415,3.415,0,1,1,1.374,4.63A3.416,3.416,0,0,1,834,1436.917Z" transform="translate(-825.419 -1427.19)" fill="none" stroke="#000" stroke-linecap="round" stroke-linejoin="round" stroke-width="1"/>
    </g>
  </g>
</svg>
