<svg xmlns="http://www.w3.org/2000/svg" width="140" height="140" viewBox="0 0 140 140">
  <g id="그룹_43392" data-name="그룹 43392" transform="translate(-818 -4839)">
    <g id="그룹_43390" data-name="그룹 43390" transform="translate(851 4846)">
      <path id="패스_81626" data-name="패스 81626" d="M1080.118,1446.348h9.773a15.746,15.746,0,0,0,15.746-15.746h0" transform="translate(-1036.992 -1420.518)" fill="none" stroke="#6a6ae6" stroke-linejoin="round" stroke-width="5"/>
      <path id="패스_81627" data-name="패스 81627" d="M1115.011,1461.16h0a15.747,15.747,0,0,1,15.745-15.747H1140.9" transform="translate(-1109.349 -1419.583)" fill="none" stroke="#6a6ae6" stroke-linejoin="round" stroke-width="5"/>
      <g id="그룹_43204" data-name="그룹 43204" transform="translate(10.911 31.078)">
        <path id="패스_81628" data-name="패스 81628" d="M1137.541,1497.589h0a23.026,23.026,0,0,0-15.746,21.845v4.4h-21v-4.4a23.026,23.026,0,0,0-15.745-21.845h0a94.344,94.344,0,0,0,22.787-36.871l3.456-10.367,3.455,10.367A94.345,94.345,0,0,0,1137.541,1497.589Zm-20.994-5.249a5.249,5.249,0,1,0-5.249,5.249A5.25,5.25,0,0,0,1116.547,1492.34Z" transform="translate(-1085.055 -1450.35)" fill="none" stroke="#6a6ae6" stroke-linejoin="round" stroke-width="5"/>
        <rect id="사각형_4252" data-name="사각형 4252" width="31.492" height="10.497" transform="translate(10.497 73.481)" fill="none" stroke="#6a6ae6" stroke-linejoin="round" stroke-width="5"/>
        <line id="선_34" data-name="선 34" y2="36.74" transform="translate(26.243)" fill="#fff" stroke="#6a6ae6" stroke-linecap="round" stroke-linejoin="round" stroke-width="5"/>
        <rect id="사각형_4253" data-name="사각형 4253" width="20.995" height="9.833" transform="translate(15.746 83.978)" fill="none" stroke="#6a6ae6" stroke-linejoin="round" stroke-width="5"/>
      </g>
      <rect id="사각형_4254" data-name="사각형 4254" width="10.497" height="10.497" transform="translate(31.905 20.581)" fill="none" stroke="#6a6ae6" stroke-linejoin="round" stroke-width="5"/>
      <rect id="사각형_4255" data-name="사각형 4255" width="10.497" height="10.497" transform="translate(0 41.989)" fill="none" stroke="#6a6ae6" stroke-linejoin="round" stroke-width="5"/>
      <rect id="사각형_4256" data-name="사각형 4256" width="10.497" height="10.497" transform="translate(62.984 0)" fill="none" stroke="#6a6ae6" stroke-linejoin="round" stroke-width="5"/>
    </g>
    <rect id="사각형_4892" data-name="사각형 4892" width="140" height="140" transform="translate(818 4839)" fill="none"/>
  </g>
</svg>
