<svg xmlns="http://www.w3.org/2000/svg" width="140" height="140" viewBox="0 0 140 140">
  <g id="그룹_43391" data-name="그룹 43391" transform="translate(-416 -4798)">
    <rect id="사각형_4891" data-name="사각형 4891" width="140" height="140" transform="translate(416 4798)" fill="none"/>
    <g id="그룹_43370" data-name="그룹 43370" transform="translate(426 4808)">
      <g id="그룹_43193" data-name="그룹 43193" transform="translate(29.157 29.267)">
        <path id="패스_81618" data-name="패스 81618" d="M632.923,1510.5v-4.491a4.7,4.7,0,0,0-2.078-3.772,31.279,31.279,0,0,1-13.133-25.609c0-17.185,13.6-31.116,30.39-31.116s30.394,13.932,30.394,31.116a31.282,31.282,0,0,1-13.135,25.609,4.706,4.706,0,0,0-2.078,3.772v5.474" transform="translate(-617.712 -1445.508)" fill="none" stroke="#6a6ae6" stroke-linecap="round" stroke-linejoin="round" stroke-width="5"/>
        <line id="선_25" data-name="선 25" y2="19.664" transform="translate(25.166 44.137)" fill="#fff" stroke="#6a6ae6" stroke-linecap="round" stroke-linejoin="round" stroke-width="5"/>
        <line id="선_26" data-name="선 26" y2="21.454" transform="translate(36.098 42.346)" fill="#fff" stroke="#6a6ae6" stroke-linecap="round" stroke-linejoin="round" stroke-width="5"/>
        <path id="패스_81619" data-name="패스 81619" d="M637.339,1517.519a5.716,5.716,0,0,0-.462,2.448,8.8,8.8,0,1,0,17.6,0,5.553,5.553,0,0,0-.526-2.579" transform="translate(-614.87 -1437.953)" fill="none" stroke="#6a6ae6" stroke-linecap="round" stroke-linejoin="round" stroke-width="5"/>
        <path id="패스_81620" data-name="패스 81620" d="M661.847,1503.358V1513a5.843,5.843,0,0,1-5.785,5.894H637.256a5.84,5.84,0,0,1-5.785-5.894v-9.641Z" transform="translate(-616.268 -1439.427)" fill="none" stroke="#6a6ae6" stroke-linecap="round" stroke-linejoin="round" stroke-width="5"/>
        <g id="그룹_43192" data-name="그룹 43192" transform="translate(15.805 31.439)">
          <path id="패스_81621" data-name="패스 81621" d="M651.817,1484.766a5.763,5.763,0,0,0,3.576,1.238,5.961,5.961,0,0,0,5.879-6.023c0-3.321-5.707-10.024-15.081.03-3.846,3.98-5.88,5.993-9.1,5.993a6.025,6.025,0,0,1,0-12.046,5.769,5.769,0,0,1,3.574,1.238" transform="translate(-631.207 -1473.957)" fill="none" stroke="#6a6ae6" stroke-linecap="round" stroke-miterlimit="10" stroke-width="5"/>
        </g>
      </g>
      <g id="그룹_43194" data-name="그룹 43194" transform="translate(0 59.662)">
        <line id="선_27" data-name="선 27" x1="14.262" transform="translate(105.063)" fill="#e8f2fc" stroke="#6a6ae6" stroke-linecap="round" stroke-linejoin="round" stroke-width="5"/>
        <line id="선_28" data-name="선 28" x1="14.26" fill="#e8f2fc" stroke="#6a6ae6" stroke-linecap="round" stroke-linejoin="round" stroke-width="5"/>
      </g>
      <g id="그룹_43195" data-name="그룹 43195" transform="translate(17.474 17.474)">
        <line id="선_29" data-name="선 29" x1="10.084" y1="10.085" transform="translate(74.293 74.292)" fill="#e8f2fc" stroke="#6a6ae6" stroke-linecap="round" stroke-linejoin="round" stroke-width="5"/>
        <line id="선_30" data-name="선 30" x1="10.084" y1="10.084" transform="translate(0)" fill="#e8f2fc" stroke="#6a6ae6" stroke-linecap="round" stroke-linejoin="round" stroke-width="5"/>
      </g>
      <g id="그룹_43196" data-name="그룹 43196" transform="translate(59.662 0)">
        <line id="선_31" data-name="선 31" y1="14.259" transform="translate(0)" fill="#e8f2fc" stroke="#6a6ae6" stroke-linecap="round" stroke-linejoin="round" stroke-width="5"/>
      </g>
      <g id="그룹_43197" data-name="그룹 43197" transform="translate(17.474 17.474)">
        <line id="선_32" data-name="선 32" y1="10.085" x2="10.084" transform="translate(0 74.292)" fill="#e8f2fc" stroke="#6a6ae6" stroke-linecap="round" stroke-linejoin="round" stroke-width="5"/>
        <line id="선_33" data-name="선 33" y1="10.083" x2="10.084" transform="translate(74.293)" fill="#e8f2fc" stroke="#6a6ae6" stroke-linecap="round" stroke-linejoin="round" stroke-width="5"/>
      </g>
    </g>
  </g>
</svg>
