<svg xmlns="http://www.w3.org/2000/svg" width="127.714" height="127.68" viewBox="0 0 127.714 127.68">
  <g id="그룹_43393" data-name="그룹 43393" transform="translate(2.501 2.5)">
    <path id="패스_81623" data-name="패스 81623" d="M909.037,1531.783a3.947,3.947,0,0,1-4.125,3.759,4.028,4.028,0,0,1-3.871-4.183,2.745,2.745,0,0,0-1.8-2.715,21.59,21.59,0,0,1-4.3-2.13,2.687,2.687,0,0,0-3.256.12,4.006,4.006,0,1,1-5.442-5.881,3,3,0,0,0,.643-3.464,21.361,21.361,0,0,1-1.468-4.317,2.7,2.7,0,0,0-2.414-2.179,4.041,4.041,0,0,1-3.905-4.19,4,4,0,0,1,4.178-3.809,2.786,2.786,0,0,0,2.8-1.8,21.721,21.721,0,0,1,2.045-4.317,2.717,2.717,0,0,0-.142-3.262,4,4,0,1,1,5.9-5.415,2.643,2.643,0,0,0,3.115.589,21.41,21.41,0,0,1,4.986-1.762,2.416,2.416,0,0,0,1.863-2.267,3.9,3.9,0,0,1,4.078-3.718l.177.01a3.926,3.926,0,0,1,3.743,4.1,2.629,2.629,0,0,0,1.878,2.529,21.651,21.651,0,0,1,4.835,2.336,2.345,2.345,0,0,0,2.848-.247,3.776,3.776,0,0,1,5.342.243l.262.292a3.834,3.834,0,0,1-.247,5.417,2.579,2.579,0,0,0-.456,3.052,21.5,21.5,0,0,1,1.748,5.122,2.36,2.36,0,0,0,2.172,1.907,3.748,3.748,0,0,1,3.57,3.921l-.017.412a3.845,3.845,0,0,1-4.022,3.665,2.417,2.417,0,0,0-2.42,1.6,21.681,21.681,0,0,1-2.484,5.029,2.366,2.366,0,0,0,.192,2.906,3.812,3.812,0,0,1-.249,5.387l-.18.166a3.947,3.947,0,0,1-5.581-.26,2.634,2.634,0,0,0-3.068-.546,21.4,21.4,0,0,1-5.05,1.656A2.375,2.375,0,0,0,909.037,1531.783Zm5.764-23.156a8.121,8.121,0,1,0-8.6,7.616A8.122,8.122,0,0,0,914.8,1508.627Z" transform="translate(-879.096 -1412.867)" fill="none" stroke="#6a6ae6" stroke-linecap="round" stroke-linejoin="round" stroke-width="5"/>
    <path id="패스_81624" data-name="패스 81624" d="M889.184,1500.853a4.005,4.005,0,1,1-7.042,3.819l-1.14-2.107a2.845,2.845,0,0,0-3.409-1.26,34.922,34.922,0,0,1-4.781,1.164,2.744,2.744,0,0,0-2.257,2.665l-.062,2.334a4,4,0,1,1-8-.215l.058-2.257a2.823,2.823,0,0,0-2.321-2.778,35,35,0,0,1-4.783-1.354,2.81,2.81,0,0,0-3.346,1.183l-1.1,1.8a4.006,4.006,0,0,1-6.829-4.189l1.02-1.666a2.8,2.8,0,0,0-.642-3.551,34.142,34.142,0,0,1-3.554-3.61,2.865,2.865,0,0,0-3.536-.706l-1.529.836a4.006,4.006,0,0,1-3.819-7.042l1.375-.742a2.669,2.669,0,0,0,1.28-3.215,34.092,34.092,0,0,1-1.377-5.2,2.907,2.907,0,0,0-2.718-2.455l-1.349-.037a4,4,0,1,1,.209-8l1.209.03a2.681,2.681,0,0,0,2.725-2.143,34.258,34.258,0,0,1,1.461-5.276,2.941,2.941,0,0,0-1.092-3.551l-.89-.549a4.006,4.006,0,0,1,4.186-6.831l.815.5a2.7,2.7,0,0,0,3.439-.475,34,34,0,0,1,4.167-4,2.775,2.775,0,0,0,.706-3.474l-.43-.788a4.006,4.006,0,1,1,7.042-3.822l.431.793a2.766,2.766,0,0,0,3.284,1.3,34.321,34.321,0,0,1,5.382-1.273,2.87,2.87,0,0,0,2.531-2.658l.023-.951a4.006,4.006,0,1,1,8.009.208l-.03,1.046a2.766,2.766,0,0,0,2.13,2.791,34.814,34.814,0,0,1,5.236,1.619,2.853,2.853,0,0,0,3.524-1.017l.633-1.03a4,4,0,0,1,6.822,4.179l-.711,1.16a2.952,2.952,0,0,0,.618,3.658,34.438,34.438,0,0,1,3.47,3.827,2.771,2.771,0,0,0,3.49.806l1.379-.745a4,4,0,1,1,3.816,7.034l-1.533.837a2.962,2.962,0,0,0-1.293,3.494,33.453,33.453,0,0,1,1.059,4.948,2.7,2.7,0,0,0,2.611,2.324l1.95.057a4,4,0,1,1-.218,8.005l-2.1-.057a2.919,2.919,0,0,0-2.853,2.307,34.366,34.366,0,0,1-1.5,4.741,2.725,2.725,0,0,0,1.116,3.319l1.922,1.181a4,4,0,1,1-4.186,6.824l-1.99-1.218a2.844,2.844,0,0,0-3.563.542,33.7,33.7,0,0,1-3.6,3.357,2.759,2.759,0,0,0-.682,3.457Zm-11.105-37.925a12.546,12.546,0,1,0-5.049,17.011A12.552,12.552,0,0,0,878.079,1462.928Z" transform="translate(-786.882 -1427.19)" fill="none" stroke="#6a6ae6" stroke-linecap="round" stroke-linejoin="round" stroke-width="5"/>
  </g>
</svg>
