<svg xmlns="http://www.w3.org/2000/svg" width="20" height="16" viewBox="0 0 20 16">
  <path id="패스_81766" data-name="패스 81766" d="M11.554-69.525a4.392,4.392,0,0,0-3.527,3.071,7.22,7.22,0,0,0-.509,2.61,1.6,1.6,0,0,0,.018.261q.018.107.055.476h3.964v6.695H3.809v-6.173q0-4.545,2.145-7a8.32,8.32,0,0,1,5.6-2.825Zm12.255,0a4.083,4.083,0,0,0-3.036,1.9,6.824,6.824,0,0,0-1.036,3.747q0,.184.018.369a1.809,1.809,0,0,0,.091.4h3.964v6.695H16.027v-6.173a11.938,11.938,0,0,1,1.818-6.526,7.5,7.5,0,0,1,5.964-3.3Z" transform="translate(-3.809 72.412)"/>
</svg>
